<svg xmlns="http://www.w3.org/2000/svg" xmlns:xlink="http://www.w3.org/1999/xlink" xmlns:s="https://github.com/nturley/netlistsvg" width="433" height="689">
  <style>svg {
    stroke:#000;
    fill:none;
  }
  text {
    fill:#000;
    stroke:none;
    font-size:10px;
    font-weight: bold;
    font-family: "Courier New", monospace;
  }
  .nodelabel {
    text-anchor: middle;
  }
  .inputPortLabel {
    text-anchor: end;
  }
  .splitjoinBody {
    fill:#000;
  }</style>
  <g s:type="generic" transform="translate(273,201.5)" s:width="30" s:height="40" id="cell_deco">
    <text x="15" y="-4" class="nodelabel cell_deco" s:attribute="ref">bcd7seg_hex</text>
    <rect width="30" height="160" s:generic="body" class="cell_deco"/>
    <g transform="translate(0,10)" s:x="0" s:y="10" s:pid="in0" id="port_deco~c0">
      <text x="-3" y="-4" class="inputPortLabel cell_deco">c0</text>
    </g>
    <g transform="translate(0,30)" s:x="0" s:y="10" s:pid="in0" id="port_deco~s0">
      <text x="-3" y="-4" class="inputPortLabel cell_deco">s0</text>
    </g>
    <g transform="translate(0,50)" s:x="0" s:y="10" s:pid="in0" id="port_deco~s1">
      <text x="-3" y="-4" class="inputPortLabel cell_deco">s1</text>
    </g>
    <g transform="translate(0,70)" s:x="0" s:y="10" s:pid="in0" id="port_deco~s2">
      <text x="-3" y="-4" class="inputPortLabel cell_deco">s2</text>
    </g>
    <g transform="translate(0,90)" s:x="0" s:y="10" s:pid="in0" id="port_deco~s3">
      <text x="-3" y="-4" class="inputPortLabel cell_deco">s3</text>
    </g>
    <g transform="translate(30,10)" s:x="30" s:y="10" s:pid="out0" id="port_deco~a">
      <text x="5" y="-4" style="fill:#000; stroke:none" class="cell_deco">a</text>
    </g>
    <g transform="translate(30,30)" s:x="30" s:y="10" s:pid="out0" id="port_deco~b">
      <text x="5" y="-4" style="fill:#000; stroke:none" class="cell_deco">b</text>
    </g>
    <g transform="translate(30,50)" s:x="30" s:y="10" s:pid="out0" id="port_deco~c">
      <text x="5" y="-4" style="fill:#000; stroke:none" class="cell_deco">c</text>
    </g>
    <g transform="translate(30,70)" s:x="30" s:y="10" s:pid="out0" id="port_deco~d">
      <text x="5" y="-4" style="fill:#000; stroke:none" class="cell_deco">d</text>
    </g>
    <g transform="translate(30,90)" s:x="30" s:y="10" s:pid="out0" id="port_deco~e">
      <text x="5" y="-4" style="fill:#000; stroke:none" class="cell_deco">e</text>
    </g>
    <g transform="translate(30,110)" s:x="30" s:y="10" s:pid="out0" id="port_deco~f">
      <text x="5" y="-4" style="fill:#000; stroke:none" class="cell_deco">f</text>
    </g>
    <g transform="translate(30,130)" s:x="30" s:y="10" s:pid="out0" id="port_deco~g">
      <text x="5" y="-4" style="fill:#000; stroke:none" class="cell_deco">g</text>
    </g>
    <g transform="translate(30,150)" s:x="30" s:y="10" s:pid="out0" id="port_deco~h">
      <text x="5" y="-4" style="fill:#000; stroke:none" class="cell_deco">h</text>
    </g>
  </g>
  <g s:type="generic" transform="translate(151,201.5)" s:width="30" s:height="40" id="cell_full_sumres0">
    <text x="15" y="-4" class="nodelabel cell_full_sumres0" s:attribute="ref">full_sumres</text>
    <rect width="30" height="200" s:generic="body" class="cell_full_sumres0"/>
    <g transform="translate(0,10)" s:x="0" s:y="10" s:pid="in0" id="port_full_sumres0~in_a0">
      <text x="-3" y="-4" class="inputPortLabel cell_full_sumres0">in_a0</text>
    </g>
    <g transform="translate(0,30)" s:x="0" s:y="10" s:pid="in0" id="port_full_sumres0~in_a1">
      <text x="-3" y="-4" class="inputPortLabel cell_full_sumres0">in_a1</text>
    </g>
    <g transform="translate(0,50)" s:x="0" s:y="10" s:pid="in0" id="port_full_sumres0~in_a2">
      <text x="-3" y="-4" class="inputPortLabel cell_full_sumres0">in_a2</text>
    </g>
    <g transform="translate(0,70)" s:x="0" s:y="10" s:pid="in0" id="port_full_sumres0~in_a3">
      <text x="-3" y="-4" class="inputPortLabel cell_full_sumres0">in_a3</text>
    </g>
    <g transform="translate(0,90)" s:x="0" s:y="10" s:pid="in0" id="port_full_sumres0~in_b0">
      <text x="-3" y="-4" class="inputPortLabel cell_full_sumres0">in_b0</text>
    </g>
    <g transform="translate(0,110)" s:x="0" s:y="10" s:pid="in0" id="port_full_sumres0~in_b1">
      <text x="-3" y="-4" class="inputPortLabel cell_full_sumres0">in_b1</text>
    </g>
    <g transform="translate(0,130)" s:x="0" s:y="10" s:pid="in0" id="port_full_sumres0~in_b2">
      <text x="-3" y="-4" class="inputPortLabel cell_full_sumres0">in_b2</text>
    </g>
    <g transform="translate(0,150)" s:x="0" s:y="10" s:pid="in0" id="port_full_sumres0~in_b3">
      <text x="-3" y="-4" class="inputPortLabel cell_full_sumres0">in_b3</text>
    </g>
    <g transform="translate(0,170)" s:x="0" s:y="10" s:pid="in0" id="port_full_sumres0~in_cy">
      <text x="-3" y="-4" class="inputPortLabel cell_full_sumres0">in_cy</text>
    </g>
    <g transform="translate(0,190)" s:x="0" s:y="10" s:pid="in0" id="port_full_sumres0~ope">
      <text x="-3" y="-4" class="inputPortLabel cell_full_sumres0">ope</text>
    </g>
    <g transform="translate(30,10)" s:x="30" s:y="10" s:pid="out0" id="port_full_sumres0~out_cy0">
      <text x="5" y="-4" style="fill:#000; stroke:none" class="cell_full_sumres0">out_cy0</text>
    </g>
    <g transform="translate(30,30)" s:x="30" s:y="10" s:pid="out0" id="port_full_sumres0~out_s0">
      <text x="5" y="-4" style="fill:#000; stroke:none" class="cell_full_sumres0">out_s0</text>
    </g>
    <g transform="translate(30,50)" s:x="30" s:y="10" s:pid="out0" id="port_full_sumres0~out_s1">
      <text x="5" y="-4" style="fill:#000; stroke:none" class="cell_full_sumres0">out_s1</text>
    </g>
    <g transform="translate(30,70)" s:x="30" s:y="10" s:pid="out0" id="port_full_sumres0~out_s2">
      <text x="5" y="-4" style="fill:#000; stroke:none" class="cell_full_sumres0">out_s2</text>
    </g>
    <g transform="translate(30,90)" s:x="30" s:y="10" s:pid="out0" id="port_full_sumres0~out_s3">
      <text x="5" y="-4" style="fill:#000; stroke:none" class="cell_full_sumres0">out_s3</text>
    </g>
  </g>
  <g s:type="inputExt" transform="translate(12,282)" s:width="30" s:height="20" id="cell_x0">
    <text x="15" y="-4" class="nodelabel cell_x0" s:attribute="ref">x0</text>
    <s:alias val="$_inputExt_"/>
    <path d="M0,0 L0,20 L15,20 L30,10 L15,0 Z" class="cell_x0"/>
    <g s:x="28" s:y="10" s:pid="Y"/>
  </g>
  <g s:type="inputExt" transform="translate(12,347)" s:width="30" s:height="20" id="cell_x1">
    <text x="15" y="-4" class="nodelabel cell_x1" s:attribute="ref">x1</text>
    <s:alias val="$_inputExt_"/>
    <path d="M0,0 L0,20 L15,20 L30,10 L15,0 Z" class="cell_x1"/>
    <g s:x="28" s:y="10" s:pid="Y"/>
  </g>
  <g s:type="inputExt" transform="translate(12,412)" s:width="30" s:height="20" id="cell_x2">
    <text x="15" y="-4" class="nodelabel cell_x2" s:attribute="ref">x2</text>
    <s:alias val="$_inputExt_"/>
    <path d="M0,0 L0,20 L15,20 L30,10 L15,0 Z" class="cell_x2"/>
    <g s:x="28" s:y="10" s:pid="Y"/>
  </g>
  <g s:type="inputExt" transform="translate(12,477)" s:width="30" s:height="20" id="cell_x3">
    <text x="15" y="-4" class="nodelabel cell_x3" s:attribute="ref">x3</text>
    <s:alias val="$_inputExt_"/>
    <path d="M0,0 L0,20 L15,20 L30,10 L15,0 Z" class="cell_x3"/>
    <g s:x="28" s:y="10" s:pid="Y"/>
  </g>
  <g s:type="inputExt" transform="translate(12,22)" s:width="30" s:height="20" id="cell_y0">
    <text x="15" y="-4" class="nodelabel cell_y0" s:attribute="ref">y0</text>
    <s:alias val="$_inputExt_"/>
    <path d="M0,0 L0,20 L15,20 L30,10 L15,0 Z" class="cell_y0"/>
    <g s:x="28" s:y="10" s:pid="Y"/>
  </g>
  <g s:type="inputExt" transform="translate(12,87)" s:width="30" s:height="20" id="cell_y1">
    <text x="15" y="-4" class="nodelabel cell_y1" s:attribute="ref">y1</text>
    <s:alias val="$_inputExt_"/>
    <path d="M0,0 L0,20 L15,20 L30,10 L15,0 Z" class="cell_y1"/>
    <g s:x="28" s:y="10" s:pid="Y"/>
  </g>
  <g s:type="inputExt" transform="translate(12,152)" s:width="30" s:height="20" id="cell_y2">
    <text x="15" y="-4" class="nodelabel cell_y2" s:attribute="ref">y2</text>
    <s:alias val="$_inputExt_"/>
    <path d="M0,0 L0,20 L15,20 L30,10 L15,0 Z" class="cell_y2"/>
    <g s:x="28" s:y="10" s:pid="Y"/>
  </g>
  <g s:type="inputExt" transform="translate(12,217)" s:width="30" s:height="20" id="cell_y3">
    <text x="15" y="-4" class="nodelabel cell_y3" s:attribute="ref">y3</text>
    <s:alias val="$_inputExt_"/>
    <path d="M0,0 L0,20 L15,20 L30,10 L15,0 Z" class="cell_y3"/>
    <g s:x="28" s:y="10" s:pid="Y"/>
  </g>
  <g s:type="inputExt" transform="translate(12,542)" s:width="30" s:height="20" id="cell_carry_in">
    <text x="15" y="-4" class="nodelabel cell_carry_in" s:attribute="ref">carry_in</text>
    <s:alias val="$_inputExt_"/>
    <path d="M0,0 L0,20 L15,20 L30,10 L15,0 Z" class="cell_carry_in"/>
    <g s:x="28" s:y="10" s:pid="Y"/>
  </g>
  <g s:type="inputExt" transform="translate(12,607)" s:width="30" s:height="20" id="cell_op">
    <text x="15" y="-4" class="nodelabel cell_op" s:attribute="ref">op</text>
    <s:alias val="$_inputExt_"/>
    <path d="M0,0 L0,20 L15,20 L30,10 L15,0 Z" class="cell_op"/>
    <g s:x="28" s:y="10" s:pid="Y"/>
  </g>
  <g s:type="outputExt" transform="translate(391,202)" s:width="30" s:height="20" id="cell_led_a">
    <text x="15" y="-4" class="nodelabel cell_led_a" s:attribute="ref">led_a</text>
    <s:alias val="$_outputExt_"/>
    <path d="M30,0 L30,20 L15,20 L0,10 L15,0 Z" class="cell_led_a"/>
    <g s:x="0" s:y="10" s:pid="A"/>
  </g>
  <g s:type="outputExt" transform="translate(391,267)" s:width="30" s:height="20" id="cell_led_b">
    <text x="15" y="-4" class="nodelabel cell_led_b" s:attribute="ref">led_b</text>
    <s:alias val="$_outputExt_"/>
    <path d="M30,0 L30,20 L15,20 L0,10 L15,0 Z" class="cell_led_b"/>
    <g s:x="0" s:y="10" s:pid="A"/>
  </g>
  <g s:type="outputExt" transform="translate(391,332)" s:width="30" s:height="20" id="cell_led_c">
    <text x="15" y="-4" class="nodelabel cell_led_c" s:attribute="ref">led_c</text>
    <s:alias val="$_outputExt_"/>
    <path d="M30,0 L30,20 L15,20 L0,10 L15,0 Z" class="cell_led_c"/>
    <g s:x="0" s:y="10" s:pid="A"/>
  </g>
  <g s:type="outputExt" transform="translate(391,397)" s:width="30" s:height="20" id="cell_led_d">
    <text x="15" y="-4" class="nodelabel cell_led_d" s:attribute="ref">led_d</text>
    <s:alias val="$_outputExt_"/>
    <path d="M30,0 L30,20 L15,20 L0,10 L15,0 Z" class="cell_led_d"/>
    <g s:x="0" s:y="10" s:pid="A"/>
  </g>
  <g s:type="outputExt" transform="translate(391,462)" s:width="30" s:height="20" id="cell_led_e">
    <text x="15" y="-4" class="nodelabel cell_led_e" s:attribute="ref">led_e</text>
    <s:alias val="$_outputExt_"/>
    <path d="M30,0 L30,20 L15,20 L0,10 L15,0 Z" class="cell_led_e"/>
    <g s:x="0" s:y="10" s:pid="A"/>
  </g>
  <g s:type="outputExt" transform="translate(391,527)" s:width="30" s:height="20" id="cell_led_f">
    <text x="15" y="-4" class="nodelabel cell_led_f" s:attribute="ref">led_f</text>
    <s:alias val="$_outputExt_"/>
    <path d="M30,0 L30,20 L15,20 L0,10 L15,0 Z" class="cell_led_f"/>
    <g s:x="0" s:y="10" s:pid="A"/>
  </g>
  <g s:type="outputExt" transform="translate(391,592)" s:width="30" s:height="20" id="cell_led_g">
    <text x="15" y="-4" class="nodelabel cell_led_g" s:attribute="ref">led_g</text>
    <s:alias val="$_outputExt_"/>
    <path d="M30,0 L30,20 L15,20 L0,10 L15,0 Z" class="cell_led_g"/>
    <g s:x="0" s:y="10" s:pid="A"/>
  </g>
  <g s:type="outputExt" transform="translate(391,657)" s:width="30" s:height="20" id="cell_led_h">
    <text x="15" y="-4" class="nodelabel cell_led_h" s:attribute="ref">led_h</text>
    <s:alias val="$_outputExt_"/>
    <path d="M30,0 L30,20 L15,20 L0,10 L15,0 Z" class="cell_led_h"/>
    <g s:x="0" s:y="10" s:pid="A"/>
  </g>
  <line x1="182" x2="273" y1="212" y2="212" class="net_20"/>
  <line x1="182" x2="273" y1="232" y2="232" class="net_21"/>
  <line x1="182" x2="273" y1="252" y2="252" class="net_22"/>
  <line x1="182" x2="273" y1="272" y2="272" class="net_23"/>
  <line x1="182" x2="273" y1="292" y2="292" class="net_24"/>
  <line x1="40" x2="100" y1="32" y2="32" class="net_6"/>
  <line x1="100" x2="100" y1="32" y2="212" class="net_6"/>
  <line x1="100" x2="151" y1="212" y2="212" class="net_6"/>
  <line x1="40" x2="90" y1="97" y2="97" class="net_7"/>
  <line x1="90" x2="90" y1="97" y2="232" class="net_7"/>
  <line x1="90" x2="151" y1="232" y2="232" class="net_7"/>
  <line x1="40" x2="80" y1="162" y2="162" class="net_8"/>
  <line x1="80" x2="80" y1="162" y2="252" class="net_8"/>
  <line x1="80" x2="151" y1="252" y2="252" class="net_8"/>
  <line x1="40" x2="70" y1="227" y2="227" class="net_9"/>
  <line x1="70" x2="70" y1="227" y2="272" class="net_9"/>
  <line x1="70" x2="151" y1="272" y2="272" class="net_9"/>
  <line x1="40" x2="151" y1="292" y2="292" class="net_2"/>
  <line x1="40" x2="70" y1="357" y2="357" class="net_3"/>
  <line x1="70" x2="70" y1="357" y2="312" class="net_3"/>
  <line x1="70" x2="151" y1="312" y2="312" class="net_3"/>
  <line x1="40" x2="80" y1="422" y2="422" class="net_4"/>
  <line x1="80" x2="80" y1="422" y2="332" class="net_4"/>
  <line x1="80" x2="151" y1="332" y2="332" class="net_4"/>
  <line x1="40" x2="90" y1="487" y2="487" class="net_5"/>
  <line x1="90" x2="90" y1="487" y2="352" class="net_5"/>
  <line x1="90" x2="151" y1="352" y2="352" class="net_5"/>
  <line x1="40" x2="100" y1="552" y2="552" class="net_10"/>
  <line x1="100" x2="100" y1="552" y2="372" class="net_10"/>
  <line x1="100" x2="151" y1="372" y2="372" class="net_10"/>
  <line x1="40" x2="110" y1="617" y2="617" class="net_11"/>
  <line x1="110" x2="110" y1="617" y2="392" class="net_11"/>
  <line x1="110" x2="151" y1="392" y2="392" class="net_11"/>
  <line x1="304" x2="391" y1="212" y2="212" class="net_12"/>
  <line x1="304" x2="381" y1="232" y2="232" class="net_13"/>
  <line x1="381" x2="381" y1="232" y2="277" class="net_13"/>
  <line x1="381" x2="391" y1="277" y2="277" class="net_13"/>
  <line x1="304" x2="371" y1="252" y2="252" class="net_14"/>
  <line x1="371" x2="371" y1="252" y2="342" class="net_14"/>
  <line x1="371" x2="391" y1="342" y2="342" class="net_14"/>
  <line x1="304" x2="361" y1="272" y2="272" class="net_15"/>
  <line x1="361" x2="361" y1="272" y2="407" class="net_15"/>
  <line x1="361" x2="391" y1="407" y2="407" class="net_15"/>
  <line x1="304" x2="351" y1="292" y2="292" class="net_16"/>
  <line x1="351" x2="351" y1="292" y2="472" class="net_16"/>
  <line x1="351" x2="391" y1="472" y2="472" class="net_16"/>
  <line x1="304" x2="341" y1="312" y2="312" class="net_17"/>
  <line x1="341" x2="341" y1="312" y2="537" class="net_17"/>
  <line x1="341" x2="391" y1="537" y2="537" class="net_17"/>
  <line x1="304" x2="331" y1="332" y2="332" class="net_18"/>
  <line x1="331" x2="331" y1="332" y2="602" class="net_18"/>
  <line x1="331" x2="391" y1="602" y2="602" class="net_18"/>
  <line x1="304" x2="321" y1="352" y2="352" class="net_19"/>
  <line x1="321" x2="321" y1="352" y2="667" class="net_19"/>
  <line x1="321" x2="391" y1="667" y2="667" class="net_19"/>
</svg>
