<svg xmlns="http://www.w3.org/2000/svg" xmlns:xlink="http://www.w3.org/1999/xlink" xmlns:s="https://github.com/nturley/netlistsvg" width="642" height="639">
  <style>svg {
    stroke:#000;
    fill:none;
  }
  text {
    fill:#000;
    stroke:none;
    font-size:10px;
    font-weight: bold;
    font-family: "Courier New", monospace;
  }
  .nodelabel {
    text-anchor: middle;
  }
  .inputPortLabel {
    text-anchor: end;
  }
  .splitjoinBody {
    fill:#000;
  }</style>
  <g s:type="generic" transform="translate(260,176.5)" s:width="30" s:height="40" id="cell_deco1">
    <text x="15" y="-4" class="nodelabel cell_deco1" s:attribute="ref">bin_2_bcd</text>
    <rect width="30" height="40" s:generic="body" class="cell_deco1"/>
    <g transform="translate(0,10)" s:x="0" s:y="10" s:pid="in0" id="port_deco1~carryout">
      <text x="-3" y="-4" class="inputPortLabel cell_deco1">carryout</text>
    </g>
    <g transform="translate(0,30)" s:x="0" s:y="10" s:pid="in0" id="port_deco1~out">
      <text x="-3" y="-4" class="inputPortLabel cell_deco1">out</text>
    </g>
    <g transform="translate(30,10)" s:x="30" s:y="10" s:pid="out0" id="port_deco1~d">
      <text x="5" y="-4" style="fill:#000; stroke:none" class="cell_deco1">d</text>
    </g>
    <g transform="translate(30,30)" s:x="30" s:y="10" s:pid="out0" id="port_deco1~u">
      <text x="5" y="-4" style="fill:#000; stroke:none" class="cell_deco1">u</text>
    </g>
  </g>
  <g s:type="generic" transform="translate(494.375,156.5)" s:width="30" s:height="40" id="cell_deco2">
    <text x="15" y="-4" class="nodelabel cell_deco2" s:attribute="ref">deco_7seg</text>
    <rect width="30" height="140" s:generic="body" class="cell_deco2"/>
    <g transform="translate(0,10)" s:x="0" s:y="10" s:pid="in0" id="port_deco2~v">
      <text x="-3" y="-4" class="inputPortLabel cell_deco2">v</text>
    </g>
    <g transform="translate(30,10)" s:x="30" s:y="10" s:pid="out0" id="port_deco2~a">
      <text x="5" y="-4" style="fill:#000; stroke:none" class="cell_deco2">a</text>
    </g>
    <g transform="translate(30,30)" s:x="30" s:y="10" s:pid="out0" id="port_deco2~b">
      <text x="5" y="-4" style="fill:#000; stroke:none" class="cell_deco2">b</text>
    </g>
    <g transform="translate(30,50)" s:x="30" s:y="10" s:pid="out0" id="port_deco2~c">
      <text x="5" y="-4" style="fill:#000; stroke:none" class="cell_deco2">c</text>
    </g>
    <g transform="translate(30,70)" s:x="30" s:y="10" s:pid="out0" id="port_deco2~d">
      <text x="5" y="-4" style="fill:#000; stroke:none" class="cell_deco2">d</text>
    </g>
    <g transform="translate(30,90)" s:x="30" s:y="10" s:pid="out0" id="port_deco2~e">
      <text x="5" y="-4" style="fill:#000; stroke:none" class="cell_deco2">e</text>
    </g>
    <g transform="translate(30,110)" s:x="30" s:y="10" s:pid="out0" id="port_deco2~f">
      <text x="5" y="-4" style="fill:#000; stroke:none" class="cell_deco2">f</text>
    </g>
    <g transform="translate(30,130)" s:x="30" s:y="10" s:pid="out0" id="port_deco2~g">
      <text x="5" y="-4" style="fill:#000; stroke:none" class="cell_deco2">g</text>
    </g>
  </g>
  <g s:type="generic" transform="translate(492,541.5)" s:width="30" s:height="40" id="cell_demux">
    <text x="15" y="-4" class="nodelabel cell_demux" s:attribute="ref">demux12</text>
    <rect width="30" height="40" s:generic="body" class="cell_demux"/>
    <g transform="translate(0,10)" s:x="0" s:y="10" s:pid="in0" id="port_demux~in">
      <text x="-3" y="-4" class="inputPortLabel cell_demux">in</text>
    </g>
    <g transform="translate(0,30)" s:x="0" s:y="10" s:pid="in0" id="port_demux~sel">
      <text x="-3" y="-4" class="inputPortLabel cell_demux">sel</text>
    </g>
    <g transform="translate(30,10)" s:x="30" s:y="10" s:pid="out0" id="port_demux~out_no">
      <text x="5" y="-4" style="fill:#000; stroke:none" class="cell_demux">out_no</text>
    </g>
    <g transform="translate(30,30)" s:x="30" s:y="10" s:pid="out0" id="port_demux~out_si">
      <text x="5" y="-4" style="fill:#000; stroke:none" class="cell_demux">out_si</text>
    </g>
  </g>
  <g s:type="generic" transform="translate(248,561.5)" s:width="30" s:height="40" id="cell_divi">
    <text x="15" y="-4" class="nodelabel cell_divi" s:attribute="ref">clk100hz</text>
    <rect width="30" height="20" s:generic="body" class="cell_divi"/>
    <g transform="translate(0,10)" s:x="0" s:y="10" s:pid="in0" id="port_divi~clk_in">
      <text x="-3" y="-4" class="inputPortLabel cell_divi">clk_in</text>
    </g>
    <g transform="translate(30,10)" s:x="30" s:y="10" s:pid="out0" id="port_divi~clk_out">
      <text x="5" y="-4" style="fill:#000; stroke:none" class="cell_divi">clk_out</text>
    </g>
  </g>
  <g s:type="generic" transform="translate(388,156.5)" s:width="30" s:height="40" id="cell_mux">
    <text x="15" y="-4" class="nodelabel cell_mux" s:attribute="ref">mux21_4bit</text>
    <rect width="30" height="60" s:generic="body" class="cell_mux"/>
    <g transform="translate(0,10)" s:x="0" s:y="10" s:pid="in0" id="port_mux~in_no">
      <text x="-3" y="-4" class="inputPortLabel cell_mux">in_no</text>
    </g>
    <g transform="translate(0,30)" s:x="0" s:y="10" s:pid="in0" id="port_mux~in_si">
      <text x="-3" y="-4" class="inputPortLabel cell_mux">in_si</text>
    </g>
    <g transform="translate(0,50)" s:x="0" s:y="10" s:pid="in0" id="port_mux~sel">
      <text x="-3" y="-4" class="inputPortLabel cell_mux">sel</text>
    </g>
    <g transform="translate(30,10)" s:x="30" s:y="10" s:pid="out0" id="port_mux~sal">
      <text x="5" y="-4" style="fill:#000; stroke:none" class="cell_mux">sal</text>
    </g>
  </g>
  <g s:type="generic" transform="translate(102,176.5)" s:width="30" s:height="40" id="cell_sum">
    <text x="15" y="-4" class="nodelabel cell_sum" s:attribute="ref">full_sumres</text>
    <rect width="30" height="60" s:generic="body" class="cell_sum"/>
    <g transform="translate(0,10)" s:x="0" s:y="10" s:pid="in0" id="port_sum~in_a">
      <text x="-3" y="-4" class="inputPortLabel cell_sum">in_a</text>
    </g>
    <g transform="translate(0,30)" s:x="0" s:y="10" s:pid="in0" id="port_sum~in_b">
      <text x="-3" y="-4" class="inputPortLabel cell_sum">in_b</text>
    </g>
    <g transform="translate(0,50)" s:x="0" s:y="10" s:pid="in0" id="port_sum~op">
      <text x="-3" y="-4" class="inputPortLabel cell_sum">op</text>
    </g>
    <g transform="translate(30,10)" s:x="30" s:y="10" s:pid="out0" id="port_sum~out_cy0">
      <text x="5" y="-4" style="fill:#000; stroke:none" class="cell_sum">out_cy0</text>
    </g>
    <g transform="translate(30,30)" s:x="30" s:y="10" s:pid="out0" id="port_sum~out_s2">
      <text x="5" y="-4" style="fill:#000; stroke:none" class="cell_sum">out_s2</text>
    </g>
    <g transform="translate(30,50)" s:x="30" s:y="10" s:pid="out0" id="port_sum~sign0">
      <text x="5" y="-4" style="fill:#000; stroke:none" class="cell_sum">sign0</text>
    </g>
  </g>
  <g s:type="inputExt" transform="translate(12,177)" s:width="30" s:height="20" id="cell_in_a">
    <text x="15" y="-4" class="nodelabel cell_in_a" s:attribute="ref">in_a</text>
    <s:alias val="$_inputExt_"/>
    <path d="M0,0 L0,20 L15,20 L30,10 L15,0 Z" class="cell_in_a"/>
    <g s:x="28" s:y="10" s:pid="Y"/>
  </g>
  <g s:type="inputExt" transform="translate(12,242)" s:width="30" s:height="20" id="cell_in_b">
    <text x="15" y="-4" class="nodelabel cell_in_b" s:attribute="ref">in_b</text>
    <s:alias val="$_inputExt_"/>
    <path d="M0,0 L0,20 L15,20 L30,10 L15,0 Z" class="cell_in_b"/>
    <g s:x="28" s:y="10" s:pid="Y"/>
  </g>
  <g s:type="inputExt" transform="translate(12,307)" s:width="30" s:height="20" id="cell_op">
    <text x="15" y="-4" class="nodelabel cell_op" s:attribute="ref">op</text>
    <s:alias val="$_inputExt_"/>
    <path d="M0,0 L0,20 L15,20 L30,10 L15,0 Z" class="cell_op"/>
    <g s:x="28" s:y="10" s:pid="Y"/>
  </g>
  <g s:type="inputExt" transform="translate(102,562)" s:width="30" s:height="20" id="cell_clk_in">
    <text x="15" y="-4" class="nodelabel cell_clk_in" s:attribute="ref">clk_in</text>
    <s:alias val="$_inputExt_"/>
    <path d="M0,0 L0,20 L15,20 L30,10 L15,0 Z" class="cell_clk_in"/>
    <g s:x="28" s:y="10" s:pid="Y"/>
  </g>
  <g s:type="outputExt" transform="translate(600,22)" s:width="30" s:height="20" id="cell_a">
    <text x="15" y="-4" class="nodelabel cell_a" s:attribute="ref">a</text>
    <s:alias val="$_outputExt_"/>
    <path d="M30,0 L30,20 L15,20 L0,10 L15,0 Z" class="cell_a"/>
    <g s:x="0" s:y="10" s:pid="A"/>
  </g>
  <g s:type="outputExt" transform="translate(600,87)" s:width="30" s:height="20" id="cell_b">
    <text x="15" y="-4" class="nodelabel cell_b" s:attribute="ref">b</text>
    <s:alias val="$_outputExt_"/>
    <path d="M30,0 L30,20 L15,20 L0,10 L15,0 Z" class="cell_b"/>
    <g s:x="0" s:y="10" s:pid="A"/>
  </g>
  <g s:type="outputExt" transform="translate(600,152)" s:width="30" s:height="20" id="cell_c">
    <text x="15" y="-4" class="nodelabel cell_c" s:attribute="ref">c</text>
    <s:alias val="$_outputExt_"/>
    <path d="M30,0 L30,20 L15,20 L0,10 L15,0 Z" class="cell_c"/>
    <g s:x="0" s:y="10" s:pid="A"/>
  </g>
  <g s:type="outputExt" transform="translate(600,217)" s:width="30" s:height="20" id="cell_d">
    <text x="15" y="-4" class="nodelabel cell_d" s:attribute="ref">d</text>
    <s:alias val="$_outputExt_"/>
    <path d="M30,0 L30,20 L15,20 L0,10 L15,0 Z" class="cell_d"/>
    <g s:x="0" s:y="10" s:pid="A"/>
  </g>
  <g s:type="outputExt" transform="translate(600,282)" s:width="30" s:height="20" id="cell_e">
    <text x="15" y="-4" class="nodelabel cell_e" s:attribute="ref">e</text>
    <s:alias val="$_outputExt_"/>
    <path d="M30,0 L30,20 L15,20 L0,10 L15,0 Z" class="cell_e"/>
    <g s:x="0" s:y="10" s:pid="A"/>
  </g>
  <g s:type="outputExt" transform="translate(600,347)" s:width="30" s:height="20" id="cell_f">
    <text x="15" y="-4" class="nodelabel cell_f" s:attribute="ref">f</text>
    <s:alias val="$_outputExt_"/>
    <path d="M30,0 L30,20 L15,20 L0,10 L15,0 Z" class="cell_f"/>
    <g s:x="0" s:y="10" s:pid="A"/>
  </g>
  <g s:type="outputExt" transform="translate(600,412)" s:width="30" s:height="20" id="cell_g">
    <text x="15" y="-4" class="nodelabel cell_g" s:attribute="ref">g</text>
    <s:alias val="$_outputExt_"/>
    <path d="M30,0 L30,20 L15,20 L0,10 L15,0 Z" class="cell_g"/>
    <g s:x="0" s:y="10" s:pid="A"/>
  </g>
  <g s:type="outputExt" transform="translate(600,477)" s:width="30" s:height="20" id="cell_sign0">
    <text x="15" y="-4" class="nodelabel cell_sign0" s:attribute="ref">sign0</text>
    <s:alias val="$_outputExt_"/>
    <path d="M30,0 L30,20 L15,20 L0,10 L15,0 Z" class="cell_sign0"/>
    <g s:x="0" s:y="10" s:pid="A"/>
  </g>
  <g s:type="outputExt" transform="translate(600,542)" s:width="30" s:height="20" id="cell_dis1">
    <text x="15" y="-4" class="nodelabel cell_dis1" s:attribute="ref">dis1</text>
    <s:alias val="$_outputExt_"/>
    <path d="M30,0 L30,20 L15,20 L0,10 L15,0 Z" class="cell_dis1"/>
    <g s:x="0" s:y="10" s:pid="A"/>
  </g>
  <g s:type="outputExt" transform="translate(600,607)" s:width="30" s:height="20" id="cell_dis0">
    <text x="15" y="-4" class="nodelabel cell_dis0" s:attribute="ref">dis0</text>
    <s:alias val="$_outputExt_"/>
    <path d="M30,0 L30,20 L15,20 L0,10 L15,0 Z" class="cell_dis0"/>
    <g s:x="0" s:y="10" s:pid="A"/>
  </g>
  <g s:type="constant" transform="translate(388,542)" s:width="30" s:height="20" id="cell_1">
    <text x="15" y="-4" class="nodelabel cell_1" s:attribute="ref">1</text>
    <s:alias val="$_constant_"/>
    <rect width="30" height="20" class="cell_1"/>
    <g s:x="30" s:y="10" s:pid="Y"/>
  </g>
  <line x1="133" x2="260" y1="187" y2="187" class="net_22"/>
  <line x1="133" x2="260" y1="207" y2="207" class="net_27,28,29,30"/>
  <line x1="419" x2="494.375" y1="167" y2="167" class="net_35,36,37,38"/>
  <line x1="418" x2="492" y1="552" y2="552" class="net_40"/>
  <line x1="279" x2="492" y1="572" y2="572" class="net_39"/>
  <line x1="279" x2="342" y1="572" y2="572" class="net_39"/>
  <line x1="342" x2="342" y1="572" y2="207" class="net_39"/>
  <circle cx="342" cy="572" r="2" style="fill:#000" class="net_39"/>
  <line x1="342" x2="388" y1="207" y2="207" class="net_39"/>
  <line x1="130" x2="248" y1="572" y2="572" class="net_11"/>
  <line x1="291" x2="332" y1="207" y2="207" class="net_31,32,33,34"/>
  <line x1="332" x2="332" y1="207" y2="167" class="net_31,32,33,34"/>
  <line x1="332" x2="388" y1="167" y2="167" class="net_31,32,33,34"/>
  <line x1="291" x2="388" y1="187" y2="187" class="net_23,24,25,26"/>
  <line x1="40" x2="102" y1="187" y2="187" class="net_2,3,4,5"/>
  <line x1="40" x2="52" y1="252" y2="252" class="net_6,7,8,9"/>
  <line x1="52" x2="52" y1="252" y2="207" class="net_6,7,8,9"/>
  <line x1="52" x2="102" y1="207" y2="207" class="net_6,7,8,9"/>
  <line x1="40" x2="62" y1="317" y2="317" class="net_10"/>
  <line x1="62" x2="62" y1="317" y2="227" class="net_10"/>
  <line x1="62" x2="102" y1="227" y2="227" class="net_10"/>
  <line x1="525.375" x2="570" y1="167" y2="167" class="net_12"/>
  <line x1="570" x2="570" y1="167" y2="32" class="net_12"/>
  <line x1="570" x2="600" y1="32" y2="32" class="net_12"/>
  <line x1="525.375" x2="580" y1="187" y2="187" class="net_13"/>
  <line x1="580" x2="580" y1="187" y2="97" class="net_13"/>
  <line x1="580" x2="600" y1="97" y2="97" class="net_13"/>
  <line x1="525.375" x2="590" y1="207" y2="207" class="net_14"/>
  <line x1="590" x2="590" y1="207" y2="162" class="net_14"/>
  <line x1="590" x2="600" y1="162" y2="162" class="net_14"/>
  <line x1="525.375" x2="600" y1="227" y2="227" class="net_15"/>
  <line x1="525.375" x2="590" y1="247" y2="247" class="net_16"/>
  <line x1="590" x2="590" y1="247" y2="292" class="net_16"/>
  <line x1="590" x2="600" y1="292" y2="292" class="net_16"/>
  <line x1="525.375" x2="580" y1="267" y2="267" class="net_17"/>
  <line x1="580" x2="580" y1="267" y2="357" class="net_17"/>
  <line x1="580" x2="600" y1="357" y2="357" class="net_17"/>
  <line x1="525.375" x2="570" y1="287" y2="287" class="net_18"/>
  <line x1="570" x2="570" y1="287" y2="422" class="net_18"/>
  <line x1="570" x2="600" y1="422" y2="422" class="net_18"/>
  <line x1="133" x2="186" y1="227" y2="227" class="net_19"/>
  <line x1="186" x2="186" y1="227" y2="487" class="net_19"/>
  <line x1="186" x2="600" y1="487" y2="487" class="net_19"/>
  <line x1="523" x2="600" y1="552" y2="552" class="net_20"/>
  <line x1="523" x2="570" y1="572" y2="572" class="net_21"/>
  <line x1="570" x2="570" y1="572" y2="617" class="net_21"/>
  <line x1="570" x2="600" y1="617" y2="617" class="net_21"/>
</svg>
