<?xml version="1.0" encoding="UTF-8" standalone="no"?>
<!-- Created with Digital by H.Neemann -->
<!-- created: Mon Oct 16 09:52:43 COT 2023 -->

<svg
   xmlns:svg="http://www.w3.org/2000/svg"
   xmlns="http://www.w3.org/2000/svg"
   width="249.45mm"
   height="125.85mm"
   viewBox="-1 218 1663 839">
<g stroke-linecap="square">
<path d="M 1600,740 L 1620,780" stroke="#0000b2" stroke-width="4.0" fill="none"/>
<path d="M 1280,640 L 1340,640 L 1340,540 L 1560,540 L 1560,600" stroke="#0000b2" stroke-width="4.0" fill="none"/>
<path d="M 180,260 L 400,260 L 400,380 L 440,380" stroke="#0000b2" stroke-width="4.0" fill="none"/>
<path d="M 80,840 L 120,840 L 120,900 L 240,900 L 254,900" stroke="#0000b2" stroke-width="4.0" fill="none"/>
<path d="M 1280,720 L 1460,720 L 1460,800 L 1560,800 L 1560,740" stroke="#0000b2" stroke-width="4.0" fill="none"/>
<path d="M 80,720 L 120,720 L 120,800 L 240,800 L 254,800" stroke="#0000b2" stroke-width="4.0" fill="none"/>
<path d="M 320,720 L 620,720 L 620,360 L 640,360" stroke="#0000b2" stroke-width="4.0" fill="none"/>
<path d="M 80,1040 L 180,1040 L 420,1040 L 420,400 L 440,400" stroke="#0000b2" stroke-width="4.0" fill="none"/>
<path d="M 180,340 L 200,340 L 200,240 L 780,240 L 780,380 L 840,380" stroke="#0000b2" stroke-width="4.0" fill="none"/>
<path d="M 1280,660 L 1360,660 L 1360,520 L 1580,520 L 1580,600" stroke="#0000b2" stroke-width="4.0" fill="none"/>
<path d="M 1280,600 L 1320,600 L 1320,580 L 1520,580 L 1520,600" stroke="#0000b2" stroke-width="4.0" fill="none"/>
<path d="M 320,920 L 1020,920 L 1020,360 L 1040,360" stroke="#0000b2" stroke-width="4.0" fill="none"/>
<path d="M 500,360 L 560,360 L 560,400 L 640,400" stroke="#0000b2" stroke-width="4.0" fill="none"/>
<path d="M 700,360 L 760,360 L 760,400 L 840,400" stroke="#0000b2" stroke-width="4.0" fill="none"/>
<path d="M 320,620 L 320,360 L 440,360" stroke="#0000b2" stroke-width="4.0" fill="none"/>
<path d="M 900,360 L 960,360 L 960,400 L 1040,400" stroke="#0000b2" stroke-width="4.0" fill="none"/>
<path d="M 1280,360 L 1660,360 L 1660,760 L 1580,760 L 1580,740" stroke="#0000b2" stroke-width="4.0" fill="none"/>
<path d="M 1180,360 L 1240,360" stroke="#0000b2" stroke-width="4.0" fill="none"/>
<path d="M 1280,680 L 1500,680 L 1500,760 L 1520,760 L 1520,740" stroke="#0000b2" stroke-width="4.0" fill="none"/>
<path d="M 180,300 L 580,300 L 580,380 L 640,380" stroke="#0000b2" stroke-width="4.0" fill="none"/>
<path d="M 1280,620 L 1300,620 L 1300,560 L 1540,560 L 1540,600" stroke="#0000b2" stroke-width="4.0" fill="none"/>
<path d="M 80,560 L 120,560 L 120,700 L 240,700 L 254,700" stroke="#0000b2" stroke-width="4.0" fill="none"/>
<path d="M 320,820 L 820,820 L 820,360 L 840,360" stroke="#0000b2" stroke-width="4.0" fill="none"/>
<path d="M 80,440 L 160,440 L 160,600 L 240,600 L 254,600" stroke="#0000b2" stroke-width="4.0" fill="none"/>
<path d="M 500,380 L 520,380 L 520,660 L 1220,660" stroke="#0000b2" stroke-width="4.0" fill="none"/>
<path d="M 700,380 L 720,380 L 720,640 L 1220,640" stroke="#0000b2" stroke-width="4.0" fill="none"/>
<path d="M 900,380 L 940,380 L 940,620 L 1220,620" stroke="#0000b2" stroke-width="4.0" fill="none"/>
<path d="M 180,380 L 260,380 L 260,220 L 980,220 L 980,380 L 1040,380" stroke="#0000b2" stroke-width="4.0" fill="none"/>
<path d="M 1100,380 L 1140,380 L 1140,600 L 1220,600" stroke="#0000b2" stroke-width="4.0" fill="none"/>
<path d="M 1280,700 L 1480,700 L 1480,780 L 1540,780 L 1540,740" stroke="#0000b2" stroke-width="4.0" fill="none"/>
<path d="M 254,640 L 240,640 L 180,640 L 180,740 L 240,740 L 254,740" stroke="#0000b2" stroke-width="4.0" fill="none"/>
<path d="M 254,840 L 240,840 L 180,840 L 180,940 L 240,940 L 254,940" stroke="#0000b2" stroke-width="4.0" fill="none"/>
<path d="M 180,940 L 180,1040" stroke="#0000b2" stroke-width="4.0" fill="none"/>
<path d="M 180,740 L 180,840" stroke="#0000b2" stroke-width="4.0" fill="none"/>
<path d="M 1170,360 L 1190,360" stroke="#000000" stroke-width="6.0" fill="none"/>
<path d="M 1590,739 L 1600,739" stroke="#000000" stroke-width="4.0" fill="none"/>
<path d="M 1620,774 L 1620,780" stroke="#000000" stroke-width="4.0" fill="none"/>
<g>
<circle cx="180.0" cy="840.0" r="4.0" stroke="#0000b2" stroke-width="4.0" fill="#0000b2" />
<circle cx="180.0" cy="1040.0" r="4.0" stroke="#0000b2" stroke-width="4.0" fill="#0000b2" />
<circle cx="180.0" cy="740.0" r="4.0" stroke="#0000b2" stroke-width="4.0" fill="#0000b2" />
<circle cx="180.0" cy="940.0" r="4.0" stroke="#0000b2" stroke-width="4.0" fill="#0000b2" />
</g>
<g>
<path d="M 149,245 L 179,245 L 179,275 L 149,275 Z" stroke="#000000" stroke-width="4.0" fill="none"/>
<circle cx="164.0" cy="260.0" r="9.0" stroke="#000000" stroke-width="4.0" fill="none" />
<text text-anchor="end" x="135.0" y="269.0" fill="#000000" style="font-size:24px"><tspan style="font-style:italic;">a0</tspan></text>
<circle cx="180.0" cy="260.0" r="2.0" stroke="#b20000" stroke-width="4.0" fill="#b20000" />
</g>
<g>
<path d="M 149,325 L 179,325 L 179,355 L 149,355 Z" stroke="#000000" stroke-width="4.0" fill="none"/>
<circle cx="164.0" cy="340.0" r="9.0" stroke="#000000" stroke-width="4.0" fill="none" />
<text text-anchor="end" x="135.0" y="349.0" fill="#000000" style="font-size:24px"><tspan style="font-style:italic;">a2</tspan></text>
<circle cx="180.0" cy="340.0" r="2.0" stroke="#b20000" stroke-width="4.0" fill="#b20000" />
</g>
<g>
<path d="M 149,285 L 179,285 L 179,315 L 149,315 Z" stroke="#000000" stroke-width="4.0" fill="none"/>
<circle cx="164.0" cy="300.0" r="9.0" stroke="#000000" stroke-width="4.0" fill="none" />
<text text-anchor="end" x="135.0" y="309.0" fill="#000000" style="font-size:24px"><tspan style="font-style:italic;">a1</tspan></text>
<circle cx="180.0" cy="300.0" r="2.0" stroke="#b20000" stroke-width="4.0" fill="#b20000" />
</g>
<g>
<path d="M 149,365 L 179,365 L 179,395 L 149,395 Z" stroke="#000000" stroke-width="4.0" fill="none"/>
<circle cx="164.0" cy="380.0" r="9.0" stroke="#000000" stroke-width="4.0" fill="none" />
<text text-anchor="end" x="135.0" y="389.0" fill="#000000" style="font-size:24px"><tspan style="font-style:italic;">a3</tspan></text>
<circle cx="180.0" cy="380.0" r="2.0" stroke="#b20000" stroke-width="4.0" fill="#b20000" />
</g>
<g>
<path d="M 49,425 L 79,425 L 79,455 L 49,455 Z" stroke="#000000" stroke-width="4.0" fill="none"/>
<circle cx="64.0" cy="440.0" r="9.0" stroke="#000000" stroke-width="4.0" fill="none" />
<text text-anchor="end" x="35.0" y="449.0" fill="#000000" style="font-size:24px"><tspan style="font-style:italic;">b0</tspan></text>
<circle cx="80.0" cy="440.0" r="2.0" stroke="#b20000" stroke-width="4.0" fill="#b20000" />
</g>
<g>
<path d="M 49,545 L 79,545 L 79,575 L 49,575 Z" stroke="#000000" stroke-width="4.0" fill="none"/>
<circle cx="64.0" cy="560.0" r="9.0" stroke="#000000" stroke-width="4.0" fill="none" />
<text text-anchor="end" x="35.0" y="569.0" fill="#000000" style="font-size:24px"><tspan style="font-style:italic;">b1</tspan></text>
<circle cx="80.0" cy="560.0" r="2.0" stroke="#b20000" stroke-width="4.0" fill="#b20000" />
</g>
<g>
<path d="M 49,705 L 79,705 L 79,735 L 49,735 Z" stroke="#000000" stroke-width="4.0" fill="none"/>
<circle cx="64.0" cy="720.0" r="9.0" stroke="#000000" stroke-width="4.0" fill="none" />
<text text-anchor="end" x="35.0" y="729.0" fill="#000000" style="font-size:24px"><tspan style="font-style:italic;">b2</tspan></text>
<circle cx="80.0" cy="720.0" r="2.0" stroke="#b20000" stroke-width="4.0" fill="#b20000" />
</g>
<g>
<path d="M 49,825 L 79,825 L 79,855 L 49,855 Z" stroke="#000000" stroke-width="4.0" fill="none"/>
<circle cx="64.0" cy="840.0" r="9.0" stroke="#000000" stroke-width="4.0" fill="none" />
<text text-anchor="end" x="35.0" y="849.0" fill="#000000" style="font-size:24px"><tspan style="font-style:italic;">b3</tspan></text>
<circle cx="80.0" cy="840.0" r="2.0" stroke="#b20000" stroke-width="4.0" fill="#b20000" />
</g>
<g>
<path d="M 1041,350 L 1099,350 L 1099,410 L 1041,410 Z" stroke="#000000" stroke-width="4.0" fill="none"/>
<text text-anchor="middle" x="1070.0" y="342.0" fill="#000000" style="font-size:24px">sum</text>
<text text-anchor="start" x="1044.0" y="366.75" fill="#808080" style="font-size:18px">B</text>
<text text-anchor="start" x="1044.0" y="386.75" fill="#808080" style="font-size:18px">A</text>
<text text-anchor="start" x="1044.0" y="406.75" fill="#808080" style="font-size:18px">Cin</text>
<text text-anchor="end" x="1096.0" y="366.75" fill="#808080" style="font-size:18px">Cout</text>
<text text-anchor="end" x="1096.0" y="386.75" fill="#808080" style="font-size:18px">S</text>
<text text-anchor="middle" x="1070.0" y="427.5" fill="#808080" style="font-size:18px">Archivo externo</text>
<circle cx="1040.0" cy="360.0" r="2.0" stroke="#0000b2" stroke-width="4.0" fill="#0000b2" />
<circle cx="1040.0" cy="380.0" r="2.0" stroke="#0000b2" stroke-width="4.0" fill="#0000b2" />
<circle cx="1040.0" cy="400.0" r="2.0" stroke="#0000b2" stroke-width="4.0" fill="#0000b2" />
<circle cx="1100.0" cy="360.0" r="2.0" stroke="#b20000" stroke-width="4.0" fill="#b20000" />
<circle cx="1100.0" cy="380.0" r="2.0" stroke="#b20000" stroke-width="4.0" fill="#b20000" />
</g>
<g>
<path d="M 1510,601 L 1590,601 L 1590,739 L 1510,739 Z" stroke="#000000" stroke-width="4.0" fill="none"/>
<path d="M 1532.04,605 L 1572.8,605 L 1578.15,610.61 L 1572.28,616.22 L 1531.52,616.22 L 1526.17,610.61 Z" stroke="#ff0000" stroke-width="0.0" fill="#ff0000" fill-opacity="1.0"/>
<path d="M 1579.49,612.01 L 1584.84,617.62 L 1582.74,662.99 L 1576.87,668.6 L 1571.52,662.99 L 1573.62,617.62 Z" stroke="#ff0000" stroke-width="0.0" fill="#ff0000" fill-opacity="1.0"/>
<path d="M 1576.74,671.4 L 1582.09,677.01 L 1580,722.38 L 1574.13,727.99 L 1568.78,722.38 L 1570.88,677.01 Z" stroke="#ff0000" stroke-width="0.0" fill="#ff0000" fill-opacity="1.0"/>
<path d="M 1526.55,723.78 L 1567.32,723.78 L 1572.67,729.39 L 1566.8,735 L 1526.04,735 L 1520.69,729.39 Z" stroke="#ff0000" stroke-width="0.0" fill="#ff0000" fill-opacity="1.0"/>
<path d="M 1521.96,671.4 L 1527.31,677.01 L 1525.22,722.38 L 1519.36,727.99 L 1514.01,722.38 L 1516.1,677.01 Z" stroke="#ff0000" stroke-width="0.0" fill="#ff0000" fill-opacity="1.0"/>
<path d="M 1524.7,612.01 L 1530.05,617.62 L 1527.96,662.99 L 1522.09,668.6 L 1516.75,662.99 L 1518.85,617.62 Z" stroke="#ff0000" stroke-width="0.0" fill="#ff0000" fill-opacity="1.0"/>
<path d="M 1529.3,664.39 L 1570.06,664.39 L 1575.41,670 L 1569.54,675.61 L 1528.78,675.61 L 1523.43,670 Z" stroke="#ff0000" stroke-width="0.0" fill="#ff0000" fill-opacity="1.0"/>
<circle cx="1582.0" cy="731.0" r="4.0" stroke="#ff0000" stroke-width="0.0" fill="#ff0000" />
<circle cx="1520.0" cy="600.0" r="2.0" stroke="#0000b2" stroke-width="4.0" fill="#0000b2" />
<circle cx="1540.0" cy="600.0" r="2.0" stroke="#0000b2" stroke-width="4.0" fill="#0000b2" />
<circle cx="1560.0" cy="600.0" r="2.0" stroke="#0000b2" stroke-width="4.0" fill="#0000b2" />
<circle cx="1580.0" cy="600.0" r="2.0" stroke="#0000b2" stroke-width="4.0" fill="#0000b2" />
<circle cx="1520.0" cy="740.0" r="2.0" stroke="#0000b2" stroke-width="4.0" fill="#0000b2" />
<circle cx="1540.0" cy="740.0" r="2.0" stroke="#0000b2" stroke-width="4.0" fill="#0000b2" />
<circle cx="1560.0" cy="740.0" r="2.0" stroke="#0000b2" stroke-width="4.0" fill="#0000b2" />
<circle cx="1580.0" cy="740.0" r="2.0" stroke="#0000b2" stroke-width="4.0" fill="#0000b2" />
<circle cx="1600.0" cy="740.0" r="2.0" stroke="#0000b2" stroke-width="4.0" fill="#0000b2" />
</g>
<g>
<path d="M 1610,784 L 1620,771 L 1630,784" stroke="#000000" stroke-width="4.0" fill="none"/>
<circle cx="1620.0" cy="780.0" r="2.0" stroke="#b20000" stroke-width="4.0" fill="#b20000" />
</g>
<g>
<path d="M 1221,590 L 1279,590 L 1279,730 L 1221,730 Z" stroke="#000000" stroke-width="4.0" fill="none"/>
<text text-anchor="middle" x="1250.0" y="582.0" fill="#000000" style="font-size:24px">bcd7seg_hex</text>
<text text-anchor="start" x="1224.0" y="606.75" fill="#808080" style="font-size:18px">a1</text>
<text text-anchor="start" x="1224.0" y="626.75" fill="#808080" style="font-size:18px">b1</text>
<text text-anchor="start" x="1224.0" y="646.75" fill="#808080" style="font-size:18px">c1</text>
<text text-anchor="start" x="1224.0" y="666.75" fill="#808080" style="font-size:18px">d1</text>
<text text-anchor="end" x="1276.0" y="606.75" fill="#808080" style="font-size:18px">a</text>
<text text-anchor="end" x="1276.0" y="626.75" fill="#808080" style="font-size:18px">b</text>
<text text-anchor="end" x="1276.0" y="646.75" fill="#808080" style="font-size:18px">c</text>
<text text-anchor="end" x="1276.0" y="666.75" fill="#808080" style="font-size:18px">d</text>
<text text-anchor="end" x="1276.0" y="686.75" fill="#808080" style="font-size:18px">e</text>
<text text-anchor="end" x="1276.0" y="706.75" fill="#808080" style="font-size:18px">f</text>
<text text-anchor="end" x="1276.0" y="726.75" fill="#808080" style="font-size:18px">g</text>
<text text-anchor="middle" x="1250.0" y="747.5" fill="#808080" style="font-size:18px">Archivo externo</text>
<circle cx="1220.0" cy="600.0" r="2.0" stroke="#0000b2" stroke-width="4.0" fill="#0000b2" />
<circle cx="1220.0" cy="620.0" r="2.0" stroke="#0000b2" stroke-width="4.0" fill="#0000b2" />
<circle cx="1220.0" cy="640.0" r="2.0" stroke="#0000b2" stroke-width="4.0" fill="#0000b2" />
<circle cx="1220.0" cy="660.0" r="2.0" stroke="#0000b2" stroke-width="4.0" fill="#0000b2" />
<circle cx="1280.0" cy="600.0" r="2.0" stroke="#b20000" stroke-width="4.0" fill="#b20000" />
<circle cx="1280.0" cy="620.0" r="2.0" stroke="#b20000" stroke-width="4.0" fill="#b20000" />
<circle cx="1280.0" cy="640.0" r="2.0" stroke="#b20000" stroke-width="4.0" fill="#b20000" />
<circle cx="1280.0" cy="660.0" r="2.0" stroke="#b20000" stroke-width="4.0" fill="#b20000" />
<circle cx="1280.0" cy="680.0" r="2.0" stroke="#b20000" stroke-width="4.0" fill="#b20000" />
<circle cx="1280.0" cy="700.0" r="2.0" stroke="#b20000" stroke-width="4.0" fill="#b20000" />
<circle cx="1280.0" cy="720.0" r="2.0" stroke="#b20000" stroke-width="4.0" fill="#b20000" />
</g>
<g>
<path d="M 1241,348 L 1259,360 L 1241,372 Z" stroke="#000000" stroke-width="4.0" fill="none"/>
<circle cx="1270.0" cy="360.0" r="9.0" stroke="#000000" stroke-width="4.0" fill="none" />
<circle cx="1240.0" cy="360.0" r="2.0" stroke="#0000b2" stroke-width="4.0" fill="#0000b2" />
<circle cx="1280.0" cy="360.0" r="2.0" stroke="#b20000" stroke-width="4.0" fill="#b20000" />
</g>
<g>
<path d="M 270,650 L 250,650 C 260,634 260,606 250,590 L 270,590 C 290,590 310,600 320,620 C 310,640 290,650 270,650 Z" stroke="#000000" stroke-width="4.0" fill="none"/>
<path d="M 240,650 C 250,640 250,600 240,590" stroke="#000000" stroke-width="4.0" fill="none"/>
<circle cx="240.0" cy="600.0" r="2.0" stroke="#0000b2" stroke-width="4.0" fill="#0000b2" />
<circle cx="240.0" cy="640.0" r="2.0" stroke="#0000b2" stroke-width="4.0" fill="#0000b2" />
<circle cx="320.0" cy="620.0" r="2.0" stroke="#b20000" stroke-width="4.0" fill="#b20000" />
</g>
<g>
<path d="M 270,750 L 250,750 C 260,734 260,706 250,690 L 270,690 C 290,690 310,700 320,720 C 310,740 290,750 270,750 Z" stroke="#000000" stroke-width="4.0" fill="none"/>
<path d="M 240,750 C 250,740 250,700 240,690" stroke="#000000" stroke-width="4.0" fill="none"/>
<circle cx="240.0" cy="700.0" r="2.0" stroke="#0000b2" stroke-width="4.0" fill="#0000b2" />
<circle cx="240.0" cy="740.0" r="2.0" stroke="#0000b2" stroke-width="4.0" fill="#0000b2" />
<circle cx="320.0" cy="720.0" r="2.0" stroke="#b20000" stroke-width="4.0" fill="#b20000" />
</g>
<g>
<path d="M 270,850 L 250,850 C 260,834 260,806 250,790 L 270,790 C 290,790 310,800 320,820 C 310,840 290,850 270,850 Z" stroke="#000000" stroke-width="4.0" fill="none"/>
<path d="M 240,850 C 250,840 250,800 240,790" stroke="#000000" stroke-width="4.0" fill="none"/>
<circle cx="240.0" cy="800.0" r="2.0" stroke="#0000b2" stroke-width="4.0" fill="#0000b2" />
<circle cx="240.0" cy="840.0" r="2.0" stroke="#0000b2" stroke-width="4.0" fill="#0000b2" />
<circle cx="320.0" cy="820.0" r="2.0" stroke="#b20000" stroke-width="4.0" fill="#b20000" />
</g>
<g>
<path d="M 270,950 L 250,950 C 260,934 260,906 250,890 L 270,890 C 290,890 310,900 320,920 C 310,940 290,950 270,950 Z" stroke="#000000" stroke-width="4.0" fill="none"/>
<path d="M 240,950 C 250,940 250,900 240,890" stroke="#000000" stroke-width="4.0" fill="none"/>
<circle cx="240.0" cy="900.0" r="2.0" stroke="#0000b2" stroke-width="4.0" fill="#0000b2" />
<circle cx="240.0" cy="940.0" r="2.0" stroke="#0000b2" stroke-width="4.0" fill="#0000b2" />
<circle cx="320.0" cy="920.0" r="2.0" stroke="#b20000" stroke-width="4.0" fill="#b20000" />
</g>
<g>
<path d="M 49,1025 L 79,1025 L 79,1055 L 49,1055 Z" stroke="#000000" stroke-width="4.0" fill="none"/>
<circle cx="64.0" cy="1040.0" r="9.0" stroke="#000000" stroke-width="4.0" fill="none" />
<text text-anchor="end" x="35.0" y="1049.0" fill="#000000" style="font-size:24px"><tspan style="font-style:italic;">Op</tspan></text>
<circle cx="80.0" cy="1040.0" r="2.0" stroke="#b20000" stroke-width="4.0" fill="#b20000" />
</g>
<g>
<circle cx="1180.0" cy="360.0" r="2.0" stroke="#b20000" stroke-width="4.0" fill="#b20000" />
</g>
<g>
<path d="M 841,350 L 899,350 L 899,410 L 841,410 Z" stroke="#000000" stroke-width="4.0" fill="none"/>
<text text-anchor="middle" x="870.0" y="342.0" fill="#000000" style="font-size:24px">sum</text>
<text text-anchor="start" x="844.0" y="366.75" fill="#808080" style="font-size:18px">B</text>
<text text-anchor="start" x="844.0" y="386.75" fill="#808080" style="font-size:18px">A</text>
<text text-anchor="start" x="844.0" y="406.75" fill="#808080" style="font-size:18px">Cin</text>
<text text-anchor="end" x="896.0" y="366.75" fill="#808080" style="font-size:18px">Cout</text>
<text text-anchor="end" x="896.0" y="386.75" fill="#808080" style="font-size:18px">S</text>
<text text-anchor="middle" x="870.0" y="427.5" fill="#808080" style="font-size:18px">Archivo externo</text>
<circle cx="840.0" cy="360.0" r="2.0" stroke="#0000b2" stroke-width="4.0" fill="#0000b2" />
<circle cx="840.0" cy="380.0" r="2.0" stroke="#0000b2" stroke-width="4.0" fill="#0000b2" />
<circle cx="840.0" cy="400.0" r="2.0" stroke="#0000b2" stroke-width="4.0" fill="#0000b2" />
<circle cx="900.0" cy="360.0" r="2.0" stroke="#b20000" stroke-width="4.0" fill="#b20000" />
<circle cx="900.0" cy="380.0" r="2.0" stroke="#b20000" stroke-width="4.0" fill="#b20000" />
</g>
<g>
<path d="M 641,350 L 699,350 L 699,410 L 641,410 Z" stroke="#000000" stroke-width="4.0" fill="none"/>
<text text-anchor="middle" x="670.0" y="342.0" fill="#000000" style="font-size:24px">sum</text>
<text text-anchor="start" x="644.0" y="366.75" fill="#808080" style="font-size:18px">B</text>
<text text-anchor="start" x="644.0" y="386.75" fill="#808080" style="font-size:18px">A</text>
<text text-anchor="start" x="644.0" y="406.75" fill="#808080" style="font-size:18px">Cin</text>
<text text-anchor="end" x="696.0" y="366.75" fill="#808080" style="font-size:18px">Cout</text>
<text text-anchor="end" x="696.0" y="386.75" fill="#808080" style="font-size:18px">S</text>
<text text-anchor="middle" x="670.0" y="427.5" fill="#808080" style="font-size:18px">Archivo externo</text>
<circle cx="640.0" cy="360.0" r="2.0" stroke="#0000b2" stroke-width="4.0" fill="#0000b2" />
<circle cx="640.0" cy="380.0" r="2.0" stroke="#0000b2" stroke-width="4.0" fill="#0000b2" />
<circle cx="640.0" cy="400.0" r="2.0" stroke="#0000b2" stroke-width="4.0" fill="#0000b2" />
<circle cx="700.0" cy="360.0" r="2.0" stroke="#b20000" stroke-width="4.0" fill="#b20000" />
<circle cx="700.0" cy="380.0" r="2.0" stroke="#b20000" stroke-width="4.0" fill="#b20000" />
</g>
<g>
<path d="M 441,350 L 499,350 L 499,410 L 441,410 Z" stroke="#000000" stroke-width="4.0" fill="none"/>
<text text-anchor="middle" x="470.0" y="342.0" fill="#000000" style="font-size:24px">sum</text>
<text text-anchor="start" x="444.0" y="366.75" fill="#808080" style="font-size:18px">B</text>
<text text-anchor="start" x="444.0" y="386.75" fill="#808080" style="font-size:18px">A</text>
<text text-anchor="start" x="444.0" y="406.75" fill="#808080" style="font-size:18px">Cin</text>
<text text-anchor="end" x="496.0" y="366.75" fill="#808080" style="font-size:18px">Cout</text>
<text text-anchor="end" x="496.0" y="386.75" fill="#808080" style="font-size:18px">S</text>
<text text-anchor="middle" x="470.0" y="427.5" fill="#808080" style="font-size:18px">Archivo externo</text>
<circle cx="440.0" cy="360.0" r="2.0" stroke="#0000b2" stroke-width="4.0" fill="#0000b2" />
<circle cx="440.0" cy="380.0" r="2.0" stroke="#0000b2" stroke-width="4.0" fill="#0000b2" />
<circle cx="440.0" cy="400.0" r="2.0" stroke="#0000b2" stroke-width="4.0" fill="#0000b2" />
<circle cx="500.0" cy="360.0" r="2.0" stroke="#b20000" stroke-width="4.0" fill="#b20000" />
<circle cx="500.0" cy="380.0" r="2.0" stroke="#b20000" stroke-width="4.0" fill="#b20000" />
</g>
</g>
</svg>