<svg xmlns="http://www.w3.org/2000/svg" xmlns:xlink="http://www.w3.org/1999/xlink" xmlns:s="https://github.com/nturley/netlistsvg" width="559" height="793.5">
  <style>svg {
    stroke:#000;
    fill:none;
  }
  text {
    fill:#000;
    stroke:none;
    font-size:10px;
    font-weight: bold;
    font-family: "Courier New", monospace;
  }
  .nodelabel {
    text-anchor: middle;
  }
  .inputPortLabel {
    text-anchor: end;
  }
  .splitjoinBody {
    fill:#000;
  }</style>
  <g s:type="and" transform="translate(157,212)" s:width="30" s:height="25" id="cell_$and$bcd7seg.v:27$5">
    <s:alias val="$and"/>
    <s:alias val="$logic_and"/>
    <s:alias val="$_AND_"/>
    <path d="M0,0 L0,25 L15,25 A15 12.5 0 0 0 15,0 Z" class="cell_$and$bcd7seg.v:27$5"/>
    <g s:x="0" s:y="5" s:pid="A"/>
    <g s:x="0" s:y="20" s:pid="B"/>
    <g s:x="30" s:y="12.5" s:pid="Y"/>
  </g>
  <g s:type="and" transform="translate(227,372.5)" s:width="30" s:height="25" id="cell_$and$bcd7seg.v:27$6">
    <s:alias val="$and"/>
    <s:alias val="$logic_and"/>
    <s:alias val="$_AND_"/>
    <path d="M0,0 L0,25 L15,25 A15 12.5 0 0 0 15,0 Z" class="cell_$and$bcd7seg.v:27$6"/>
    <g s:x="0" s:y="5" s:pid="A"/>
    <g s:x="0" s:y="20" s:pid="B"/>
    <g s:x="30" s:y="12.5" s:pid="Y"/>
  </g>
  <g s:type="and" transform="translate(317,547)" s:width="30" s:height="25" id="cell_$and$bcd7seg.v:27$7">
    <s:alias val="$and"/>
    <s:alias val="$logic_and"/>
    <s:alias val="$_AND_"/>
    <path d="M0,0 L0,25 L15,25 A15 12.5 0 0 0 15,0 Z" class="cell_$and$bcd7seg.v:27$7"/>
    <g s:x="0" s:y="5" s:pid="A"/>
    <g s:x="0" s:y="20" s:pid="B"/>
    <g s:x="30" s:y="12.5" s:pid="Y"/>
  </g>
  <g s:type="and" transform="translate(227,503)" s:width="30" s:height="25" id="cell_$and$bcd7seg.v:27$8">
    <s:alias val="$and"/>
    <s:alias val="$logic_and"/>
    <s:alias val="$_AND_"/>
    <path d="M0,0 L0,25 L15,25 A15 12.5 0 0 0 15,0 Z" class="cell_$and$bcd7seg.v:27$8"/>
    <g s:x="0" s:y="5" s:pid="A"/>
    <g s:x="0" s:y="20" s:pid="B"/>
    <g s:x="30" s:y="12.5" s:pid="Y"/>
  </g>
  <g s:type="and" transform="translate(317,607)" s:width="30" s:height="25" id="cell_$and$bcd7seg.v:27$9">
    <s:alias val="$and"/>
    <s:alias val="$logic_and"/>
    <s:alias val="$_AND_"/>
    <path d="M0,0 L0,25 L15,25 A15 12.5 0 0 0 15,0 Z" class="cell_$and$bcd7seg.v:27$9"/>
    <g s:x="0" s:y="5" s:pid="A"/>
    <g s:x="0" s:y="20" s:pid="B"/>
    <g s:x="30" s:y="12.5" s:pid="Y"/>
  </g>
  <g s:type="and" transform="translate(382,396)" s:width="30" s:height="25" id="cell_$and$bcd7seg.v:28$12">
    <s:alias val="$and"/>
    <s:alias val="$logic_and"/>
    <s:alias val="$_AND_"/>
    <path d="M0,0 L0,25 L15,25 A15 12.5 0 0 0 15,0 Z" class="cell_$and$bcd7seg.v:28$12"/>
    <g s:x="0" s:y="5" s:pid="A"/>
    <g s:x="0" s:y="20" s:pid="B"/>
    <g s:x="30" s:y="12.5" s:pid="Y"/>
  </g>
  <g s:type="and" transform="translate(317,487)" s:width="30" s:height="25" id="cell_$and$bcd7seg.v:28$13">
    <s:alias val="$and"/>
    <s:alias val="$logic_and"/>
    <s:alias val="$_AND_"/>
    <path d="M0,0 L0,25 L15,25 A15 12.5 0 0 0 15,0 Z" class="cell_$and$bcd7seg.v:28$13"/>
    <g s:x="0" s:y="5" s:pid="A"/>
    <g s:x="0" s:y="20" s:pid="B"/>
    <g s:x="30" s:y="12.5" s:pid="Y"/>
  </g>
  <g s:type="and" transform="translate(382,627)" s:width="30" s:height="25" id="cell_$and$bcd7seg.v:28$14">
    <s:alias val="$and"/>
    <s:alias val="$logic_and"/>
    <s:alias val="$_AND_"/>
    <path d="M0,0 L0,25 L15,25 A15 12.5 0 0 0 15,0 Z" class="cell_$and$bcd7seg.v:28$14"/>
    <g s:x="0" s:y="5" s:pid="A"/>
    <g s:x="0" s:y="20" s:pid="B"/>
    <g s:x="30" s:y="12.5" s:pid="Y"/>
  </g>
  <g s:type="and" transform="translate(382,121)" s:width="30" s:height="25" id="cell_$and$bcd7seg.v:29$17">
    <s:alias val="$and"/>
    <s:alias val="$logic_and"/>
    <s:alias val="$_AND_"/>
    <path d="M0,0 L0,25 L15,25 A15 12.5 0 0 0 15,0 Z" class="cell_$and$bcd7seg.v:29$17"/>
    <g s:x="0" s:y="5" s:pid="A"/>
    <g s:x="0" s:y="20" s:pid="B"/>
    <g s:x="30" s:y="12.5" s:pid="Y"/>
  </g>
  <g s:type="and" transform="translate(452,128.5)" s:width="30" s:height="25" id="cell_$and$bcd7seg.v:29$18">
    <s:alias val="$and"/>
    <s:alias val="$logic_and"/>
    <s:alias val="$_AND_"/>
    <path d="M0,0 L0,25 L15,25 A15 12.5 0 0 0 15,0 Z" class="cell_$and$bcd7seg.v:29$18"/>
    <g s:x="0" s:y="5" s:pid="A"/>
    <g s:x="0" s:y="20" s:pid="B"/>
    <g s:x="30" s:y="12.5" s:pid="Y"/>
  </g>
  <g s:type="and" transform="translate(382,456)" s:width="30" s:height="25" id="cell_$and$bcd7seg.v:30$26">
    <s:alias val="$and"/>
    <s:alias val="$logic_and"/>
    <s:alias val="$_AND_"/>
    <path d="M0,0 L0,25 L15,25 A15 12.5 0 0 0 15,0 Z" class="cell_$and$bcd7seg.v:30$26"/>
    <g s:x="0" s:y="5" s:pid="A"/>
    <g s:x="0" s:y="20" s:pid="B"/>
    <g s:x="30" s:y="12.5" s:pid="Y"/>
  </g>
  <g s:type="and" transform="translate(317,734.5)" s:width="30" s:height="25" id="cell_$and$bcd7seg.v:31$28">
    <s:alias val="$and"/>
    <s:alias val="$logic_and"/>
    <s:alias val="$_AND_"/>
    <path d="M0,0 L0,25 L15,25 A15 12.5 0 0 0 15,0 Z" class="cell_$and$bcd7seg.v:31$28"/>
    <g s:x="0" s:y="5" s:pid="A"/>
    <g s:x="0" s:y="20" s:pid="B"/>
    <g s:x="30" s:y="12.5" s:pid="Y"/>
  </g>
  <g s:type="and" transform="translate(382,742)" s:width="30" s:height="25" id="cell_$and$bcd7seg.v:31$29">
    <s:alias val="$and"/>
    <s:alias val="$logic_and"/>
    <s:alias val="$_AND_"/>
    <path d="M0,0 L0,25 L15,25 A15 12.5 0 0 0 15,0 Z" class="cell_$and$bcd7seg.v:31$29"/>
    <g s:x="0" s:y="5" s:pid="A"/>
    <g s:x="0" s:y="20" s:pid="B"/>
    <g s:x="30" s:y="12.5" s:pid="Y"/>
  </g>
  <g s:type="and" transform="translate(317,219.5)" s:width="30" s:height="25" id="cell_$and$bcd7seg.v:32$32">
    <s:alias val="$and"/>
    <s:alias val="$logic_and"/>
    <s:alias val="$_AND_"/>
    <path d="M0,0 L0,25 L15,25 A15 12.5 0 0 0 15,0 Z" class="cell_$and$bcd7seg.v:32$32"/>
    <g s:x="0" s:y="5" s:pid="A"/>
    <g s:x="0" s:y="20" s:pid="B"/>
    <g s:x="30" s:y="12.5" s:pid="Y"/>
  </g>
  <g s:type="and" transform="translate(317,279.5)" s:width="30" s:height="25" id="cell_$and$bcd7seg.v:32$33">
    <s:alias val="$and"/>
    <s:alias val="$logic_and"/>
    <s:alias val="$_AND_"/>
    <path d="M0,0 L0,25 L15,25 A15 12.5 0 0 0 15,0 Z" class="cell_$and$bcd7seg.v:32$33"/>
    <g s:x="0" s:y="5" s:pid="A"/>
    <g s:x="0" s:y="20" s:pid="B"/>
    <g s:x="30" s:y="12.5" s:pid="Y"/>
  </g>
  <g s:type="and" transform="translate(382,325.5)" s:width="30" s:height="25" id="cell_$and$bcd7seg.v:32$35">
    <s:alias val="$and"/>
    <s:alias val="$logic_and"/>
    <s:alias val="$_AND_"/>
    <path d="M0,0 L0,25 L15,25 A15 12.5 0 0 0 15,0 Z" class="cell_$and$bcd7seg.v:32$35"/>
    <g s:x="0" s:y="5" s:pid="A"/>
    <g s:x="0" s:y="20" s:pid="B"/>
    <g s:x="30" s:y="12.5" s:pid="Y"/>
  </g>
  <g s:type="not" transform="translate(77,207)" s:width="30" s:height="20" id="cell_$not$bcd7seg.v:23$1">
    <s:alias val="$_NOT_"/>
    <s:alias val="$not"/>
    <s:alias val="$logic_not"/>
    <path d="M0,0 L0,20 L20,10 Z" class="cell_$not$bcd7seg.v:23$1"/>
    <circle cx="23" cy="10" r="3" class="cell_$not$bcd7seg.v:23$1"/>
    <g s:x="0" s:y="10" s:pid="A"/>
    <g s:x="25" s:y="10" s:pid="Y"/>
  </g>
  <g s:type="not" transform="translate(77,87)" s:width="30" s:height="20" id="cell_$not$bcd7seg.v:24$2">
    <s:alias val="$_NOT_"/>
    <s:alias val="$not"/>
    <s:alias val="$logic_not"/>
    <path d="M0,0 L0,20 L20,10 Z" class="cell_$not$bcd7seg.v:24$2"/>
    <circle cx="23" cy="10" r="3" class="cell_$not$bcd7seg.v:24$2"/>
    <g s:x="0" s:y="10" s:pid="A"/>
    <g s:x="25" s:y="10" s:pid="Y"/>
  </g>
  <g s:type="not" transform="translate(157,513)" s:width="30" s:height="20" id="cell_$not$bcd7seg.v:25$3">
    <s:alias val="$_NOT_"/>
    <s:alias val="$not"/>
    <s:alias val="$logic_not"/>
    <path d="M0,0 L0,20 L20,10 Z" class="cell_$not$bcd7seg.v:25$3"/>
    <circle cx="23" cy="10" r="3" class="cell_$not$bcd7seg.v:25$3"/>
    <g s:x="0" s:y="10" s:pid="A"/>
    <g s:x="25" s:y="10" s:pid="Y"/>
  </g>
  <g s:type="not" transform="translate(227,432.5)" s:width="30" s:height="20" id="cell_$not$bcd7seg.v:26$4">
    <s:alias val="$_NOT_"/>
    <s:alias val="$not"/>
    <s:alias val="$logic_not"/>
    <path d="M0,0 L0,20 L20,10 Z" class="cell_$not$bcd7seg.v:26$4"/>
    <circle cx="23" cy="10" r="3" class="cell_$not$bcd7seg.v:26$4"/>
    <g s:x="0" s:y="10" s:pid="A"/>
    <g s:x="25" s:y="10" s:pid="Y"/>
  </g>
  <g s:type="or" transform="translate(382,554.5)" s:width="30" s:height="25" id="cell_$or$bcd7seg.v:27$10">
    <s:alias val="$or"/>
    <s:alias val="$logic_or"/>
    <s:alias val="$_OR_"/>
    <path d="M0,25 L0,25 L15,25 A15 12.5 0 0 0 15,0 L0,0" class="cell_$or$bcd7seg.v:27$10"/>
    <path d="M0,0 A30 25 0 0 1 0,25" class="cell_$or$bcd7seg.v:27$10"/>
    <g s:x="3" s:y="5" s:pid="A"/>
    <g s:x="3" s:y="20" s:pid="B"/>
    <g s:x="30" s:y="12.5" s:pid="Y"/>
  </g>
  <g s:type="or" transform="translate(452,619.5)" s:width="30" s:height="25" id="cell_$or$bcd7seg.v:28$15">
    <s:alias val="$or"/>
    <s:alias val="$logic_or"/>
    <s:alias val="$_OR_"/>
    <path d="M0,25 L0,25 L15,25 A15 12.5 0 0 0 15,0 L0,0" class="cell_$or$bcd7seg.v:28$15"/>
    <path d="M0,0 A30 25 0 0 1 0,25" class="cell_$or$bcd7seg.v:28$15"/>
    <g s:x="3" s:y="5" s:pid="A"/>
    <g s:x="3" s:y="20" s:pid="B"/>
    <g s:x="30" s:y="12.5" s:pid="Y"/>
  </g>
  <g s:type="or" transform="translate(452,684.5)" s:width="30" s:height="25" id="cell_$or$bcd7seg.v:30$27">
    <s:alias val="$or"/>
    <s:alias val="$logic_or"/>
    <s:alias val="$_OR_"/>
    <path d="M0,25 L0,25 L15,25 A15 12.5 0 0 0 15,0 L0,0" class="cell_$or$bcd7seg.v:30$27"/>
    <path d="M0,0 A30 25 0 0 1 0,25" class="cell_$or$bcd7seg.v:30$27"/>
    <g s:x="3" s:y="5" s:pid="A"/>
    <g s:x="3" s:y="20" s:pid="B"/>
    <g s:x="30" s:y="12.5" s:pid="Y"/>
  </g>
  <g s:type="or" transform="translate(452,749.5)" s:width="30" s:height="25" id="cell_$or$bcd7seg.v:31$30">
    <s:alias val="$or"/>
    <s:alias val="$logic_or"/>
    <s:alias val="$_OR_"/>
    <path d="M0,25 L0,25 L15,25 A15 12.5 0 0 0 15,0 L0,0" class="cell_$or$bcd7seg.v:31$30"/>
    <path d="M0,0 A30 25 0 0 1 0,25" class="cell_$or$bcd7seg.v:31$30"/>
    <g s:x="3" s:y="5" s:pid="A"/>
    <g s:x="3" s:y="20" s:pid="B"/>
    <g s:x="30" s:y="12.5" s:pid="Y"/>
  </g>
  <g s:type="or" transform="translate(382,227)" s:width="30" s:height="25" id="cell_$or$bcd7seg.v:32$34">
    <s:alias val="$or"/>
    <s:alias val="$logic_or"/>
    <s:alias val="$_OR_"/>
    <path d="M0,25 L0,25 L15,25 A15 12.5 0 0 0 15,0 L0,0" class="cell_$or$bcd7seg.v:32$34"/>
    <path d="M0,0 A30 25 0 0 1 0,25" class="cell_$or$bcd7seg.v:32$34"/>
    <g s:x="3" s:y="5" s:pid="A"/>
    <g s:x="3" s:y="20" s:pid="B"/>
    <g s:x="30" s:y="12.5" s:pid="Y"/>
  </g>
  <g s:type="or" transform="translate(452,234.5)" s:width="30" s:height="25" id="cell_$or$bcd7seg.v:32$36">
    <s:alias val="$or"/>
    <s:alias val="$logic_or"/>
    <s:alias val="$_OR_"/>
    <path d="M0,25 L0,25 L15,25 A15 12.5 0 0 0 15,0 L0,0" class="cell_$or$bcd7seg.v:32$36"/>
    <path d="M0,0 A30 25 0 0 1 0,25" class="cell_$or$bcd7seg.v:32$36"/>
    <g s:x="3" s:y="5" s:pid="A"/>
    <g s:x="3" s:y="20" s:pid="B"/>
    <g s:x="30" s:y="12.5" s:pid="Y"/>
  </g>
  <g s:type="or" transform="translate(452,380)" s:width="30" s:height="25" id="cell_$or$bcd7seg.v:33$41">
    <s:alias val="$or"/>
    <s:alias val="$logic_or"/>
    <s:alias val="$_OR_"/>
    <path d="M0,25 L0,25 L15,25 A15 12.5 0 0 0 15,0 L0,0" class="cell_$or$bcd7seg.v:33$41"/>
    <path d="M0,0 A30 25 0 0 1 0,25" class="cell_$or$bcd7seg.v:33$41"/>
    <g s:x="3" s:y="5" s:pid="A"/>
    <g s:x="3" s:y="20" s:pid="B"/>
    <g s:x="30" s:y="12.5" s:pid="Y"/>
  </g>
  <g s:type="inputExt" transform="translate(12,22)" s:width="30" s:height="20" id="cell_a1">
    <text x="15" y="-4" class="nodelabel cell_a1" s:attribute="ref">a1</text>
    <s:alias val="$_inputExt_"/>
    <path d="M0,0 L0,20 L15,20 L30,10 L15,0 Z" class="cell_a1"/>
    <g s:x="28" s:y="10" s:pid="Y"/>
  </g>
  <g s:type="inputExt" transform="translate(12,87)" s:width="30" s:height="20" id="cell_b1">
    <text x="15" y="-4" class="nodelabel cell_b1" s:attribute="ref">b1</text>
    <s:alias val="$_inputExt_"/>
    <path d="M0,0 L0,20 L15,20 L30,10 L15,0 Z" class="cell_b1"/>
    <g s:x="28" s:y="10" s:pid="Y"/>
  </g>
  <g s:type="inputExt" transform="translate(77,152)" s:width="30" s:height="20" id="cell_c1">
    <text x="15" y="-4" class="nodelabel cell_c1" s:attribute="ref">c1</text>
    <s:alias val="$_inputExt_"/>
    <path d="M0,0 L0,20 L15,20 L30,10 L15,0 Z" class="cell_c1"/>
    <g s:x="28" s:y="10" s:pid="Y"/>
  </g>
  <g s:type="inputExt" transform="translate(157,351.5)" s:width="30" s:height="20" id="cell_d1">
    <text x="15" y="-4" class="nodelabel cell_d1" s:attribute="ref">d1</text>
    <s:alias val="$_inputExt_"/>
    <path d="M0,0 L0,20 L15,20 L30,10 L15,0 Z" class="cell_d1"/>
    <g s:x="28" s:y="10" s:pid="Y"/>
  </g>
  <g s:type="outputExt" transform="translate(517,557)" s:width="30" s:height="20" id="cell_a">
    <text x="15" y="-4" class="nodelabel cell_a" s:attribute="ref">a</text>
    <s:alias val="$_outputExt_"/>
    <path d="M30,0 L30,20 L15,20 L0,10 L15,0 Z" class="cell_a"/>
    <g s:x="0" s:y="10" s:pid="A"/>
  </g>
  <g s:type="outputExt" transform="translate(517,622)" s:width="30" s:height="20" id="cell_b">
    <text x="15" y="-4" class="nodelabel cell_b" s:attribute="ref">b</text>
    <s:alias val="$_outputExt_"/>
    <path d="M30,0 L30,20 L15,20 L0,10 L15,0 Z" class="cell_b"/>
    <g s:x="0" s:y="10" s:pid="A"/>
  </g>
  <g s:type="outputExt" transform="translate(517,131)" s:width="30" s:height="20" id="cell_c">
    <text x="15" y="-4" class="nodelabel cell_c" s:attribute="ref">c</text>
    <s:alias val="$_outputExt_"/>
    <path d="M30,0 L30,20 L15,20 L0,10 L15,0 Z" class="cell_c"/>
    <g s:x="0" s:y="10" s:pid="A"/>
  </g>
  <g s:type="outputExt" transform="translate(517,687)" s:width="30" s:height="20" id="cell_d">
    <text x="15" y="-4" class="nodelabel cell_d" s:attribute="ref">d</text>
    <s:alias val="$_outputExt_"/>
    <path d="M30,0 L30,20 L15,20 L0,10 L15,0 Z" class="cell_d"/>
    <g s:x="0" s:y="10" s:pid="A"/>
  </g>
  <g s:type="outputExt" transform="translate(517,752)" s:width="30" s:height="20" id="cell_e">
    <text x="15" y="-4" class="nodelabel cell_e" s:attribute="ref">e</text>
    <s:alias val="$_outputExt_"/>
    <path d="M30,0 L30,20 L15,20 L0,10 L15,0 Z" class="cell_e"/>
    <g s:x="0" s:y="10" s:pid="A"/>
  </g>
  <g s:type="outputExt" transform="translate(517,237)" s:width="30" s:height="20" id="cell_f">
    <text x="15" y="-4" class="nodelabel cell_f" s:attribute="ref">f</text>
    <s:alias val="$_outputExt_"/>
    <path d="M30,0 L30,20 L15,20 L0,10 L15,0 Z" class="cell_f"/>
    <g s:x="0" s:y="10" s:pid="A"/>
  </g>
  <g s:type="outputExt" transform="translate(517,382.5)" s:width="30" s:height="20" id="cell_g">
    <text x="15" y="-4" class="nodelabel cell_g" s:attribute="ref">g</text>
    <s:alias val="$_outputExt_"/>
    <path d="M30,0 L30,20 L15,20 L0,10 L15,0 Z" class="cell_g"/>
    <g s:x="0" s:y="10" s:pid="A"/>
  </g>
  <line x1="102" x2="157" y1="217" y2="217" class="net_13"/>
  <line x1="102" x2="127" y1="217" y2="217" class="net_13"/>
  <line x1="127" x2="127" y1="217" y2="739.5" class="net_13"/>
  <circle cx="127" cy="217" r="2" style="fill:#000" class="net_13"/>
  <line x1="127" x2="317" y1="739.5" y2="739.5" class="net_13"/>
  <line x1="102" x2="147" y1="97" y2="97" class="net_14"/>
  <line x1="147" x2="147" y1="97" y2="232" class="net_14"/>
  <circle cx="147" cy="232" r="2" style="fill:#000" class="net_14"/>
  <line x1="147" x2="157" y1="232" y2="232" class="net_14"/>
  <line x1="102" x2="147" y1="97" y2="97" class="net_14"/>
  <line x1="147" x2="147" y1="97" y2="284.5" class="net_14"/>
  <line x1="147" x2="317" y1="284.5" y2="284.5" class="net_14"/>
  <line x1="187" x2="207" y1="224.5" y2="224.5" class="net_15"/>
  <line x1="207" x2="207" y1="224.5" y2="377.5" class="net_15"/>
  <circle cx="207" cy="224.5" r="2" style="fill:#000" class="net_15"/>
  <line x1="207" x2="227" y1="377.5" y2="377.5" class="net_15"/>
  <line x1="187" x2="207" y1="224.5" y2="224.5" class="net_15"/>
  <line x1="207" x2="207" y1="224.5" y2="126" class="net_15"/>
  <line x1="207" x2="382" y1="126" y2="126" class="net_15"/>
  <line x1="187" x2="317" y1="224.5" y2="224.5" class="net_15"/>
  <line x1="182" x2="207" y1="523" y2="523" class="net_16"/>
  <line x1="207" x2="207" y1="523" y2="392.5" class="net_16"/>
  <circle cx="207" cy="523" r="2" style="fill:#000" class="net_16"/>
  <line x1="207" x2="227" y1="392.5" y2="392.5" class="net_16"/>
  <line x1="182" x2="227" y1="523" y2="523" class="net_16"/>
  <line x1="182" x2="207" y1="523" y2="523" class="net_16"/>
  <line x1="207" x2="207" y1="523" y2="769.5" class="net_16"/>
  <line x1="207" x2="357" y1="769.5" y2="769.5" class="net_16"/>
  <line x1="357" x2="357" y1="769.5" y2="762" class="net_16"/>
  <line x1="357" x2="382" y1="762" y2="762" class="net_16"/>
  <line x1="257" x2="297" y1="385" y2="385" class="net_17"/>
  <line x1="297" x2="297" y1="385" y2="552" class="net_17"/>
  <circle cx="297" cy="385" r="2" style="fill:#000" class="net_17"/>
  <line x1="297" x2="317" y1="552" y2="552" class="net_17"/>
  <line x1="257" x2="455" y1="385" y2="385" class="net_17"/>
  <line x1="185" x2="197" y1="361.5" y2="361.5" class="net_5"/>
  <line x1="197" x2="197" y1="361.5" y2="567" class="net_5"/>
  <circle cx="197" cy="361.5" r="2" style="fill:#000" class="net_5"/>
  <circle cx="197" cy="567" r="2" style="fill:#000" class="net_5"/>
  <line x1="197" x2="317" y1="567" y2="567" class="net_5"/>
  <line x1="185" x2="307" y1="361.5" y2="361.5" class="net_5"/>
  <line x1="307" x2="307" y1="361.5" y2="476" class="net_5"/>
  <line x1="307" x2="357" y1="476" y2="476" class="net_5"/>
  <line x1="357" x2="357" y1="476" y2="416" class="net_5"/>
  <circle cx="307" cy="361.5" r="2" style="fill:#000" class="net_5"/>
  <circle cx="357" cy="476" r="2" style="fill:#000" class="net_5"/>
  <line x1="357" x2="382" y1="416" y2="416" class="net_5"/>
  <line x1="185" x2="307" y1="361.5" y2="361.5" class="net_5"/>
  <line x1="307" x2="307" y1="361.5" y2="476" class="net_5"/>
  <line x1="307" x2="382" y1="476" y2="476" class="net_5"/>
  <line x1="185" x2="197" y1="361.5" y2="361.5" class="net_5"/>
  <line x1="197" x2="197" y1="361.5" y2="239.5" class="net_5"/>
  <line x1="197" x2="317" y1="239.5" y2="239.5" class="net_5"/>
  <line x1="185" x2="357" y1="361.5" y2="361.5" class="net_5"/>
  <line x1="357" x2="357" y1="361.5" y2="345.5" class="net_5"/>
  <line x1="357" x2="382" y1="345.5" y2="345.5" class="net_5"/>
  <line x1="185" x2="197" y1="361.5" y2="361.5" class="net_5"/>
  <line x1="197" x2="197" y1="361.5" y2="442.5" class="net_5"/>
  <circle cx="197" cy="442.5" r="2" style="fill:#000" class="net_5"/>
  <line x1="197" x2="227" y1="442.5" y2="442.5" class="net_5"/>
  <line x1="185" x2="197" y1="361.5" y2="361.5" class="net_5"/>
  <line x1="197" x2="197" y1="361.5" y2="780.5" class="net_5"/>
  <line x1="197" x2="422" y1="780.5" y2="780.5" class="net_5"/>
  <line x1="422" x2="422" y1="780.5" y2="769.5" class="net_5"/>
  <line x1="422" x2="455" y1="769.5" y2="769.5" class="net_5"/>
  <line x1="40" x2="52" y1="97" y2="97" class="net_3"/>
  <line x1="52" x2="52" y1="97" y2="492" class="net_3"/>
  <line x1="52" x2="217" y1="492" y2="492" class="net_3"/>
  <line x1="217" x2="217" y1="492" y2="508" class="net_3"/>
  <circle cx="52" cy="97" r="2" style="fill:#000" class="net_3"/>
  <circle cx="217" cy="492" r="2" style="fill:#000" class="net_3"/>
  <line x1="217" x2="227" y1="508" y2="508" class="net_3"/>
  <line x1="40" x2="52" y1="97" y2="97" class="net_3"/>
  <line x1="52" x2="52" y1="97" y2="492" class="net_3"/>
  <line x1="52" x2="317" y1="492" y2="492" class="net_3"/>
  <line x1="40" x2="52" y1="97" y2="97" class="net_3"/>
  <line x1="52" x2="52" y1="97" y2="492" class="net_3"/>
  <line x1="52" x2="117" y1="492" y2="492" class="net_3"/>
  <line x1="117" x2="117" y1="492" y2="750.5" class="net_3"/>
  <line x1="117" x2="267" y1="750.5" y2="750.5" class="net_3"/>
  <line x1="267" x2="267" y1="750.5" y2="754.5" class="net_3"/>
  <circle cx="117" cy="492" r="2" style="fill:#000" class="net_3"/>
  <line x1="267" x2="317" y1="754.5" y2="754.5" class="net_3"/>
  <line x1="40" x2="77" y1="97" y2="97" class="net_3"/>
  <line x1="257" x2="287" y1="515.5" y2="515.5" class="net_19"/>
  <line x1="287" x2="287" y1="515.5" y2="612" class="net_19"/>
  <circle cx="287" cy="515.5" r="2" style="fill:#000" class="net_19"/>
  <line x1="287" x2="317" y1="612" y2="612" class="net_19"/>
  <line x1="257" x2="287" y1="515.5" y2="515.5" class="net_19"/>
  <line x1="287" x2="287" y1="515.5" y2="401" class="net_19"/>
  <line x1="287" x2="382" y1="401" y2="401" class="net_19"/>
  <line x1="252" x2="277" y1="442.5" y2="442.5" class="net_20"/>
  <line x1="277" x2="277" y1="442.5" y2="627" class="net_20"/>
  <circle cx="277" cy="442.5" r="2" style="fill:#000" class="net_20"/>
  <circle cx="277" cy="627" r="2" style="fill:#000" class="net_20"/>
  <line x1="277" x2="317" y1="627" y2="627" class="net_20"/>
  <line x1="252" x2="277" y1="442.5" y2="442.5" class="net_20"/>
  <line x1="277" x2="277" y1="442.5" y2="647" class="net_20"/>
  <line x1="277" x2="382" y1="647" y2="647" class="net_20"/>
  <line x1="252" x2="277" y1="442.5" y2="442.5" class="net_20"/>
  <line x1="277" x2="277" y1="442.5" y2="314.5" class="net_20"/>
  <line x1="277" x2="422" y1="314.5" y2="314.5" class="net_20"/>
  <line x1="422" x2="422" y1="314.5" y2="148.5" class="net_20"/>
  <line x1="422" x2="452" y1="148.5" y2="148.5" class="net_20"/>
  <line x1="105" x2="137" y1="162" y2="162" class="net_4"/>
  <line x1="137" x2="137" y1="162" y2="543" class="net_4"/>
  <line x1="137" x2="307" y1="543" y2="543" class="net_4"/>
  <line x1="307" x2="307" y1="543" y2="507" class="net_4"/>
  <circle cx="137" cy="162" r="2" style="fill:#000" class="net_4"/>
  <line x1="307" x2="317" y1="507" y2="507" class="net_4"/>
  <line x1="105" x2="357" y1="162" y2="162" class="net_4"/>
  <line x1="357" x2="357" y1="162" y2="141" class="net_4"/>
  <line x1="357" x2="382" y1="141" y2="141" class="net_4"/>
  <line x1="105" x2="137" y1="162" y2="162" class="net_4"/>
  <line x1="137" x2="137" y1="162" y2="330.5" class="net_4"/>
  <line x1="137" x2="267" y1="330.5" y2="330.5" class="net_4"/>
  <line x1="267" x2="267" y1="330.5" y2="299.5" class="net_4"/>
  <circle cx="137" cy="330.5" r="2" style="fill:#000" class="net_4"/>
  <circle cx="267" cy="330.5" r="2" style="fill:#000" class="net_4"/>
  <line x1="267" x2="317" y1="299.5" y2="299.5" class="net_4"/>
  <line x1="105" x2="137" y1="162" y2="162" class="net_4"/>
  <line x1="137" x2="137" y1="162" y2="330.5" class="net_4"/>
  <line x1="137" x2="382" y1="330.5" y2="330.5" class="net_4"/>
  <line x1="105" x2="137" y1="162" y2="162" class="net_4"/>
  <line x1="137" x2="137" y1="162" y2="523" class="net_4"/>
  <circle cx="137" cy="523" r="2" style="fill:#000" class="net_4"/>
  <line x1="137" x2="157" y1="523" y2="523" class="net_4"/>
  <line x1="347" x2="367" y1="499.5" y2="499.5" class="net_23"/>
  <line x1="367" x2="367" y1="499.5" y2="632" class="net_23"/>
  <circle cx="367" cy="499.5" r="2" style="fill:#000" class="net_23"/>
  <line x1="367" x2="382" y1="632" y2="632" class="net_23"/>
  <line x1="347" x2="367" y1="499.5" y2="499.5" class="net_23"/>
  <line x1="367" x2="367" y1="499.5" y2="461" class="net_23"/>
  <line x1="367" x2="382" y1="461" y2="461" class="net_23"/>
  <line x1="412" x2="452" y1="133.5" y2="133.5" class="net_25"/>
  <line x1="347" x2="382" y1="747" y2="747" class="net_27"/>
  <line x1="40" x2="62" y1="32" y2="32" class="net_2"/>
  <line x1="62" x2="62" y1="32" y2="217" class="net_2"/>
  <line x1="62" x2="77" y1="217" y2="217" class="net_2"/>
  <line x1="347" x2="385" y1="559.5" y2="559.5" class="net_18"/>
  <line x1="347" x2="357" y1="619.5" y2="619.5" class="net_21"/>
  <line x1="357" x2="357" y1="619.5" y2="574.5" class="net_21"/>
  <line x1="357" x2="385" y1="574.5" y2="574.5" class="net_21"/>
  <line x1="412" x2="442" y1="408.5" y2="408.5" class="net_22"/>
  <line x1="442" x2="442" y1="408.5" y2="624.5" class="net_22"/>
  <line x1="442" x2="455" y1="624.5" y2="624.5" class="net_22"/>
  <line x1="412" x2="455" y1="639.5" y2="639.5" class="net_24"/>
  <line x1="412" x2="432" y1="567" y2="567" class="net_6"/>
  <line x1="432" x2="432" y1="567" y2="689.5" class="net_6"/>
  <circle cx="432" cy="567" r="2" style="fill:#000" class="net_6"/>
  <line x1="432" x2="455" y1="689.5" y2="689.5" class="net_6"/>
  <line x1="412" x2="517" y1="567" y2="567" class="net_6"/>
  <line x1="412" x2="422" y1="468.5" y2="468.5" class="net_26"/>
  <line x1="422" x2="422" y1="468.5" y2="704.5" class="net_26"/>
  <circle cx="422" cy="468.5" r="2" style="fill:#000" class="net_26"/>
  <line x1="422" x2="455" y1="704.5" y2="704.5" class="net_26"/>
  <line x1="412" x2="422" y1="468.5" y2="468.5" class="net_26"/>
  <line x1="422" x2="422" y1="468.5" y2="400" class="net_26"/>
  <line x1="422" x2="455" y1="400" y2="400" class="net_26"/>
  <line x1="412" x2="455" y1="754.5" y2="754.5" class="net_28"/>
  <line x1="347" x2="385" y1="232" y2="232" class="net_29"/>
  <line x1="347" x2="357" y1="292" y2="292" class="net_30"/>
  <line x1="357" x2="357" y1="292" y2="247" class="net_30"/>
  <line x1="357" x2="385" y1="247" y2="247" class="net_30"/>
  <line x1="412" x2="455" y1="239.5" y2="239.5" class="net_32"/>
  <line x1="412" x2="432" y1="338" y2="338" class="net_31"/>
  <line x1="432" x2="432" y1="338" y2="254.5" class="net_31"/>
  <line x1="432" x2="455" y1="254.5" y2="254.5" class="net_31"/>
  <line x1="482" x2="517" y1="632" y2="632" class="net_7"/>
  <line x1="482" x2="517" y1="141" y2="141" class="net_8"/>
  <line x1="482" x2="517" y1="697" y2="697" class="net_9"/>
  <line x1="482" x2="517" y1="762" y2="762" class="net_10"/>
  <line x1="482" x2="517" y1="247" y2="247" class="net_11"/>
  <line x1="482" x2="517" y1="392.5" y2="392.5" class="net_12"/>
</svg>
